<?xml version="1.0" standalone="yes"?>
<svg xmlns="http://www.w3.org/2000/svg" width="418" height="418">
<path style="fill:#113159; stroke:none;" d="M0 0L0 418L418 418L418 0L0 0z"/>
<path style="fill:#fafafb; stroke:none;" d="M129 88.4252C110.947 90.8757 94.2338 98.2528 81.0394 111.09C57.2715 134.213 50.5312 173.188 67.6049 202C72.4573 210.188 78.626 217.489 86 223.535C117.761 249.58 160.446 240.742 195 259.309C208.736 266.691 219.977 280.796 229.517 293C232.991 297.444 234.382 307.634 242 306.573C248.478 305.672 260.276 293.964 255.396 287.133C253.411 284.354 249.856 283.122 247.424 280.776C241.802 275.352 237.095 268.906 232 263C226.802 256.975 221.038 251.641 218.345 244C213.346 229.815 211.114 214.958 210.09 200C209.294 188.385 210.213 176.569 208.711 165C205.729 142.044 196.079 119.391 178 104.326C172.062 99.3777 165.204 95.5511 158 92.814C149.311 89.5126 138.28 87.1655 129 88.4252M220 200C225.942 194.173 230.483 186.654 235.474 180L266.105 139C271.223 132.173 276.162 121.562 283.174 116.603C287.62 113.458 295.814 115 301 115L322 115C325.389 115 329.698 115.67 332.91 114.397C339.128 111.931 345.698 100.984 348 95L294 95C287.476 95 277.249 93.0624 271.184 95.6034C267.834 97.0073 265.721 101.179 263.709 104C259.378 110.073 254.791 115.953 250.424 122C242.919 132.395 235.297 142.727 227.626 153C224.405 157.314 218.943 162.586 217.849 168C215.858 177.851 219.793 189.976 220 200z"/>
<path style="fill:#113159; stroke:none;" d="M155 220C152.31 213.056 146.199 207.607 141.421 202L112.421 168C108.415 163.297 99.5289 156.154 98.1674 150.004C97.1077 145.217 107.921 138.017 111 135.015C118.315 127.882 126.232 121.387 137 122.09C157.72 123.443 170.667 147.178 159.441 165C155.797 170.784 150.648 175.264 145 179C148.729 187.141 156.468 194.208 162.272 201C164.071 203.106 166.936 207.793 170.089 207.793C173.127 207.793 175.67 204.116 177.32 201.999C181.961 196.047 185.315 189.293 187.244 182C196.942 145.338 170.794 101.23 130 104.09C122.779 104.596 115.47 107.114 109 110.259C102.411 113.463 96.2141 117.683 91.1705 123.039C81.7932 132.999 74.6474 146.242 73.1736 160C69.7549 191.914 96.001 222.668 128 224.91C137.546 225.58 146.182 223.402 155 220z"/>
<path style="fill:#fafafb; stroke:none;" d="M269 219L264 216C281.554 196.884 295.76 173.903 311.116 153C316.859 145.182 327.459 134.89 328 125C325.617 125.008 322.579 124.617 320.495 126.028C318.52 127.364 317.404 130.079 316.101 132.001C313.092 136.44 309.827 140.696 306.63 145C294.668 161.102 283.348 177.667 271.709 194C267.548 199.839 262.521 210.681 255.96 213.958C251.284 216.293 245.306 212.757 241 211C243.31 217.309 247.174 222.977 253.001 226.521C255.727 228.179 262.793 229.845 262.793 233.9C262.793 236.629 258.989 237.33 256.999 237.869C251.17 239.447 245.641 241.248 240 243.408C238.044 244.157 235.396 245.43 233.411 244.045C231.126 242.45 232.342 239.2 232.684 237C233.664 230.683 233.834 224.282 235 218C231.356 221.234 225.673 226.996 224.89 232C223.344 241.87 234.327 251.507 240 258C258.591 248.259 279.954 247.191 300 241.845C313.404 238.27 326.439 231.739 337 222.7C359.554 203.396 373.872 171.089 361.572 142C358.659 135.112 355.099 128.71 350.245 123.005C348.71 121.2 346.704 118.207 344.025 118.207C341.066 118.207 338.937 121.936 337.425 124.001C333.017 130.021 328.604 136.03 324.127 142C310.722 159.872 297.005 177.59 284.341 196C279.237 203.421 272.499 210.682 269 219z"/>
<path style="fill:#113159; stroke:none;" d="M132 138.587C128.118 139.603 119.452 145.328 120.059 150.015C120.491 153.346 124.188 156.516 126.197 159C128.397 161.721 131.775 167.634 135.997 166.669C138.165 166.173 140.063 164.086 141.56 162.571C144.879 159.212 147.92 154.943 147.799 150C147.61 142.292 139.319 136.673 132 138.587M337.317 147.047C332.712 149.885 336.737 157.699 341.683 154.777C346.321 152.037 342.195 144.04 337.317 147.047z"/>
<path style="fill:#fafafb; stroke:none;" d="M85.3179 157.047C80.9472 159.761 85.1144 167.31 89.6829 164.762C94.3804 162.143 90.1872 154.024 85.3179 157.047z"/>
<path style="fill:#113159; stroke:none;" d="M327.228 159.801C321.807 161.777 325.563 169.485 330.772 167.377C335.889 165.307 332.022 158.053 327.228 159.801z"/>
<path style="fill:#fafafb; stroke:none;" d="M417 164L417 176C418.512 172.396 418.512 167.604 417 164M173.318 166.047C168.866 168.809 173.201 175.733 177.682 172.953C182.134 170.191 177.799 163.267 173.318 166.047M97.1481 169.137C92.0251 171.529 95.9544 179.15 100.852 176.863C105.975 174.471 102.046 166.85 97.1481 169.137z"/>
<path style="fill:#113159; stroke:none;" d="M338.434 171.032C333.668 174.242 338.914 181.996 343.562 178.238C347.962 174.682 343.167 167.844 338.434 171.032M317.148 172.137C312.039 174.524 315.904 182.371 320.852 179.914C325.905 177.404 322.076 169.834 317.148 172.137z"/>
<path style="fill:#fafafb; stroke:none;" d="M163.144 177.176C158.451 179.144 160.816 186.832 165.867 185.149C170.874 183.481 167.908 175.178 163.144 177.176M86.213 179.851C81.2643 181.555 83.6548 189.885 88.8673 188.149C93.8731 186.482 91.3138 178.095 86.213 179.851M107.317 181.762C102.86 183.8 106.32 190.889 110.856 189.338C116.303 187.476 112.524 179.38 107.317 181.762z"/>
<path style="fill:#113159; stroke:none;" d="M329.225 183.786C323.827 185.937 327.71 194.462 332.852 191.914C337.991 189.366 334.556 181.662 329.225 183.786M307.228 184.801C302.335 186.585 304.917 194.409 309.896 193.11C315.757 191.579 312.802 182.768 307.228 184.801z"/>
<path style="fill:#fafafb; stroke:none;" d="M97.2245 192.851C92.4366 194.479 95.12 201.79 99.8673 200.288C104.808 198.725 102.119 191.187 97.2245 192.851M117.437 194.047C113.199 196.787 117.244 203.735 121.685 200.953C126.058 198.214 121.829 191.207 117.437 194.047z"/>
<path style="fill:#113159; stroke:none;" d="M319.143 195.851C314.003 197.534 316.535 205.891 321.857 204.149C326.997 202.466 324.465 194.109 319.143 195.851M297.148 198.072C291.78 200.936 296.828 207.932 301.563 204.806C305.901 201.942 301.576 195.709 297.148 198.072z"/>
<path style="fill:#fafafb; stroke:none;" d="M128.321 207.047C124.004 209.744 128.377 216.513 132.685 213.928C137.17 211.238 132.783 204.26 128.321 207.047z"/>
<path style="fill:#113159; stroke:none;" d="M193.151 209.346C190.569 210.183 189.009 213.978 187.511 215.996C183.843 220.936 179.395 224.699 174.001 227.641C171.555 228.975 167.636 230.492 167.636 233.871C167.636 236.907 171.815 237.395 174.001 238.01C179.729 239.623 185.477 240.963 191 243.228C193.463 244.238 196.928 246.443 199.682 245.343C202.578 244.185 201.777 240.33 201.253 238C199.598 230.639 198.542 223.441 197.42 216C197.094 213.841 196.726 208.187 193.151 209.346M308.317 209.047C303.712 211.885 307.737 219.699 312.683 216.777C317.321 214.037 313.195 206.04 308.317 209.047M287.151 211.047C281.771 214.028 286.813 221.144 291.682 217.968C296.194 215.025 291.789 208.478 287.151 211.047z"/>
<path style="fill:#fafafb; stroke:none;" d="M83 335L136 335C143.634 335 153.53 336.679 160.91 334.682C166.328 333.216 171.15 324.447 174.067 320C175.26 318.182 176.474 316.251 175.745 314.001C174.121 308.993 166.805 304.477 163 301C160.126 305.001 156.964 311.409 152.675 313.972C150.19 315.458 146.769 314.999 144 315L126 315C133.474 301.883 144.312 290.082 153.373 278C157.527 272.462 163.236 266.787 165 260C159.897 259.891 154.968 258.621 150 257.501C147.533 256.945 144.711 255.724 142.184 256.644C139.436 257.643 137.763 260.782 136.116 263.001L125.627 277C116.905 288.628 108.348 300.372 99.6265 312C93.9964 319.507 87.6488 326.841 83 335M259 261C269.884 280.106 286.304 295.788 297 315C290.442 315 278.048 317.393 272.325 313.972C268.324 311.581 265.567 305.773 263 302C256.903 304.843 252.858 310.614 247 314C249.293 319.96 256.023 331.857 262.174 334.397C268.523 337.018 279.179 335 286 335L340 335C327.789 315.391 311.952 297.733 298.424 279C294.737 273.894 290.905 268.952 287.014 264.001C285.31 261.832 283.58 258.631 280.816 257.693C275.005 255.722 265.025 260.222 259 261M188.039 271.461C185.78 271.996 184.172 274.357 182.754 276.005C180.87 278.194 179.138 280.667 176.83 282.441C173.568 284.947 167.895 285.977 167.546 291.004C167.123 297.097 178.951 307.674 184.985 306.624C190.638 305.641 194.384 294.174 197.981 290C199.444 288.303 201.364 286.417 201.364 284C201.364 279.721 192.538 270.396 188.039 271.461M417 351L417 368C418.883 363.514 418.883 355.486 417 351z"/>
</svg>
