<?xml version="1.0" encoding="UTF-8"?>
<svg id="Capa_2" data-name="Capa 2" xmlns="http://www.w3.org/2000/svg" viewBox="0 0 602 583.18">
  <defs>
    <style>
      .cls-1 {
        fill: #f4f2dc;
      }

      .cls-2 {
        fill: #dce605;
      }

      .cls-3 {
        fill: #d5dc04;
      }

      .cls-4 {
        fill: #bec302;
      }

      .cls-5 {
        fill: #c6cd03;
      }

      .cls-6 {
        fill: #302c28;
      }

      .cls-7 {
        fill: #dfec58;
      }

      .cls-8 {
        fill: #cecb9b;
      }

      .cls-9 {
        fill: #b6ba02;
      }

      .cls-10 {
        fill: #d3d1a3;
      }

      .cls-11 {
        fill: #dae305;
      }

      .cls-12 {
        fill: #eae8c9;
      }

      .cls-13 {
        fill: #dfe804;
      }

      .cls-14 {
        fill: #efecd3;
      }

      .cls-15 {
        fill: #e4ef6d;
      }

      .cls-16 {
        fill: #c1c802;
      }

      .cls-17 {
        fill: #e4f005;
      }

      .cls-18 {
        fill: #deeb45;
      }

      .cls-19 {
        fill: #faf8e8;
      }

      .cls-20 {
        fill: #cdd403;
      }

      .cls-21 {
        fill: #919806;
      }

      .cls-22 {
        fill: #d0d804;
      }

      .cls-23 {
        fill: #f6f3de;
      }

      .cls-24 {
        fill: #e7e4c2;
      }

      .cls-25 {
        fill: #e8f405;
      }

      .cls-26 {
        fill: #e6f07a;
      }

      .cls-27 {
        fill: #dce932;
      }

      .cls-28 {
        fill: #bcc002;
      }
    </style>
  </defs>
  <g id="Capa_1-2" data-name="Capa 1">
    <rect width="602" height="583.18" fill="#0b0f14"/>
    <path class="cls-23" d="M491,72.48l5.22.33c1.28,1.37,2.03,3.85,1.77,5.89-.84,6.61-7.38,12.1-11.93,10.06l-5.89,2.45c-1.68.7-3.19,1.72-3.71,3.3-2.19,6.65-8.43,7.3-14.51,9.04-3.7,3.03-7.33,9.14-12.15,10.65l-3.39,1.06c-.57.18-.39,2.76-.83,3.26l-7.37,8.38-6.13,3.94c-2.02,1.3-6.25,13.5-13.73,15.73-2.87,7.16-6.71,14.29-14.86,16.1.08,14.48-5.86,7-8.1,19.06-.7,3.79-2.92,4.96-6.77,5.89-1.36,3.18-2.47,8.17-3.33,12.17l-4.13,4.92c-.45,3.47-1.06,6.9-5.08,6.58l-1.6,9.7c-7.98,4.68.77,7.04-7.62,14.63-3.58,7.93.11,12.76-5.05,16.9-2.19,1.75-3.09,4.86-1.95,7.51,4.31,10.09-7.71,9.79-1.01,18.23l-1.03,10.31c-.2,2-.54,3.43-1.23,5.51-.02.08,2.7,1.16,2.51,2.05-3.46,16.45-1.61,3.74-1.59,13.38l.02,7.82c3.32,2.36,4.72,6,3.26,9.98s.25,7.37,1.37,11.08c1.31,4.34.22,9.17,1.23,14.59l1.46-5.23,2.15,1.98c.44,2.21.74,6.61,1.66,8.54l5.27,10.93c1.83,3.8,6.06,7.67,7.49,11.68,4.32,12.14,8.84,10.65,14.68,23.56.76,1.68,1.67,4.57,2.02,6.22l-6.45,1.63-.84,6.74c-.06,2.58,2.55,7.5,4.05,9.52,2.39.62,4.04,1.27,5.83,2.42l2.81,1.81c-.83-.53,1.51,7.91,4.5,11.98,2.24,3.05,7.39,6.56,7.16,10.98l-7.94,7.1-1.98-.04-5.63-5.1,1.14,4.68-5.59-5.86c-6.92-7.24-5.18-12.63-8.86-10.85-5.56,2.68-5.24-7.02-8.28-12.21-.72-1.22-1.81-2.82-2.7-3.9-.75-.91-3.76-.11-4.99.08l-2.62-5.82c-2.29-3.8-3.92-7.22-5.28-11.03l-1.25,3.22-4.76-7.16-1.17,2.62c-5-7.23-6.77-14.8-9.05-23.16l-.69,4.99c-1.87-2.54-4.13-5.05-4.9-6.76l-3.89-8.58c-4.4-9.72-.62-3.39-7.43-14.15l1.6-2.15,1.69,3.19c.46.87,2.91.91,4.62.7l-2.08-3.89c5.46-4.12,4.62-10.79,3.56-17.05l-3.83-22.73c-.52-3.1-5.1-5.9-2.17-9.77,1.93-2.55,1.65-6.02.59-9.3,1.62-1.92,4.52-4.69,5.44-7.64.55-1.76-1.81-5.29-2.93-7.32l4.73-1.77c2.67-6.19,1-13.37-4.36-17.34,7.4-11.63-4.54-14.87,3.06-18.1,4.29-1.82,4.86-6.39,5.28-10.72,1.04-10.65.8-7.98,3.12-17.5,5.63-.88,3.6-7.05,5.23-9.63l7-11.05c.59-.93,2.08-3.76,1.22-4.25l-3.3-1.9c4.82-1.82,7.92-5.38,11.34-8.81,9.92-9.94,13-17.96,22.84-28.88l10.11-2.03,1.45-7.93c3.78-1.44,8.88-4.79,9.55-9.07.2-1.31-1.5-4.21-2.14-5.06,10.31-8.79,4.67-10.45,18.91-19.05,7.64-4.61,10.23-6.91,14.35-16.01,12.71,1.02,14.64-6.41,22.08-9.52,8.33-3.48,20.93-7.07,22.7-16.71.54-.01,1.52-.04,2.02-.01Z"/>
    <path class="cls-19" d="M114.78,69.48c-.48,6.69,10.36.35,17.07,10.32,4.41-3.82,6.95.64,10.18,1.8,7.16,2.58,13.1,6,17.29,12.66,2.87-.36,8.96-.11,10.81,2.53s5.14,4.4,8.06,6.06c5.57,6.36,10.33,12.39,18.21,16.8,2.65,2.99,5.14,8.4,8.41,11.3,4.58,4.06,10.42,8.2,12.41,14.17,1.42,4.23,2.15,8.57,7.93,8.81,1.97,1.94,5.52,5.19,6.79,7.38l6.09,10.48c1.62,2.78,2.1,5.58,1.19,9.09l4.82,5.6c8.91.56,1.98,8.97,8.06,11.2.98,3.91.95,11.68.44,16.43-4.21.97-5.16-2.1-9.49-4.6l2.76,6.58c.04,2.57-.63,7.05-1.73,9.34l-1.85,3.83c-.49,1.01,1.51,2.85,2.54,3.71,8.46,7.05,4.99,11.08,4.82,13.06-.19,2.32,1.25,7.08,2.21,9.27,1.42,3.26,5.59,5.59,3.65,10.02-3.4,7.75.59,9.73-2.99,13.31-.97.97-4.43,1.07-4.97.63-.08-3.07-.88-5.19-3.03-5.47-1.18-7.86-5.09-6.26-2.7-14.53,2.64-9.13-7.65-7.32-4.83-21.65.16-.82.32-3.5-.38-3.88l-3.28-1.77c-1.96-1.06-1.8-6.76-3.25-8.43-2.38-2.76-4.73-5.57-5.56-9.49l-1.68-4.88-1.99-5.79c-3.52-2.48-4.57-6.63-5.88-10.74-1.01-3.15-6.68-5.91-7.37-9.46-2.57-13.21-7.03-7.75-10.62-21.41-.2-.74-.85-2.73-1.5-2.6l-2.53.5c-4.59-3.69-8.56-8.4-10.54-14.1-2.1-1.42-4.98-2.73-6.6-4.52l-8.98-9.87c-3.51-3.86-7.76-6.41-8.39-12.04-.35-3.12-4.63-3.91-7.57-5.16-4.44-1.88-7.21-6.97-11.08-10.07l-12.51-4.99c-5.91-11.47-11.89-5.37-22.45-13.27,2.02-1.03,4.5-2.11,4.09-3.15-1.76-4.45-5.49-1.48-5.99-4.81l2.13-4.01c3.03-1.89,6.39-3.48,9.77-4.17Z"/>
    <path class="cls-6" d="M98.05,81.74l-5.06,5.83-3.77,4.11C47.29,132.32,18.02,186.81,8.91,244.58c-.94,5.98-2.2,12.07-2.83,18.17-.1,1-.07,2.75-.08,3.85l-.04,3.09-.05,3c-2.11,13.7-.79,28.15-.08,42l.2,4,.81,6c2.72,20.11,6.31,40.58,14.02,59.08.67,6.87,5.13,12.9,7.49,19.15,2.13,5.63,4.97,10.73,7.75,15.81l8.16,14.9c5.48,10.02,12.27,18.87,18.9,28,8.39,11.54,17.58,22.49,28.03,32.45l3.77,3.6,5.92,7.7c-2.82-.57-5.88-1.93-8.45-4.32C35.45,448.23.51,374.12.02,295.83c-.08-12.95.11-24.42,1.66-37.35,8.06-67.53,40.37-129.73,90.08-175.89l6.3-.86Z"/>
    <path class="cls-6" d="M502.95,504.69l-.67-.87c2.26-2,4.39-4.34,4.77-7.13,1.37-.39,2.73-1.65,3.15-2.95,14.01-12.16,26.25-27.46,36.74-42.87,2.37-3.48,5.32-6.75,6.35-10.78,10.68-12.43,16.46-28.51,22.98-43.46,11.69-26.8,18-56.59,19.81-85.82l.93-15.11-.81-21.05c-.62-16.06-3.25-31.61-6.91-47.05-2.78-11.71-5.46-23.08-10.31-34.23-5.34-12.28-9.18-25.65-17.01-36.79-1.19-1.7-2.95-4.41-3.86-6.14-11.47-21.78-27.68-42.07-45.76-58.8-.13-1.61-2.44-3.05-3.21-4.2l-3.97-5.93,5.61,1.88c59.09,55.45,92.75,131.42,91.16,213.28-.67,34.54-6.94,67.37-19.9,99.4-16.09,39.78-40.74,75.11-71.91,104.43-1.89,1.78-5.38,3.07-7.19,4.18Z"/>
    <path class="cls-6" d="M496.22,72.81l-5.22-.33c2.21-2.09-9.1-7.41-10.02-6.78.15-2.99-3.02-3.56-5.03-5.04-21.93-16.02-46.13-28.21-71.89-38-5.56-2.11-10.65-2.95-15.71-4.18-4.59-1.12-9.46-3.82-14.33-4.65-2.87-.49-6.15-.98-8.91-1.29-3.52-1.44-7.23-2.06-11.03-2.83-6.66-1.35-13.68-2.82-20.96-3.06-2.17-.07-3.62,1.24-5.49-1.03C257.18-.18,183.67,18.16,127.04,60.46c-2.04,1.53-5.81,1.73-6.27,4.94-2.18.43-4.67,2.18-5.98,4.08-3.38.69-6.74,2.28-9.77,4.17.48-.91,1.27-3.13,2.11-3.89,11.32-10.14,23.46-18.45,36.46-26.27,90.21-54.33,203.18-57.88,296.98-9.9,19.15,9.79,36.52,21.68,53.34,35.21,1.06.85,2.02,3,2.31,4.02Z"/>
    <path class="cls-6" d="M496.86,509.57c-.13,1.72-1.21,3.41-3.08,4.94-60.09,49.19-136.9,73.42-214.76,67.89-49.8-3.53-96.95-19.13-139.62-45.32-10.09-6.19-26.77-18.39-34.19-26.13l8.95,2.83c2.7,2.71,6,5.2,9.65,5.97.56,2.49,3.37,3.22,5.27,4.7,19.4,15.19,42.38,25.01,65.06,33.92,18.64,7.32,37.48,12.24,57.24,15.64,78.72,13.51,156.42-4.5,221.68-50.12l5.95-4.16c1.85-1.3,4.46-2.55,6.12-4.12l11.73-6.04Z"/>
    <path class="cls-19" d="M121.07,507.83c-.22,2.69-15.04.41-16.79-.14l-1.22-1.13c-.38-6.59,2.16-9.47,8.66-13.14,1.2-.68,4.32,1.89,5.7,2.01,3.84.32,6.1-5.31,8.4-8.07,2.52-2.96,8.58-3.12,11.31-5.6,9.87-8.99,8.89-10.4,18.76-15.19,8.43-4.09,12.29-13.39,18.11-19.97,3.05-3.44,7.74-5.68,9.49-10.36,6.26.3,6.41-3.91,8.37-8,3.56-7.41,10.09-16.58,15.47-26.32,8.1-14.65,12.13-10.99,13.69-22.95l1.96-1.29c5.56,2.02,6.59,18.5.14,21.9-.32,2.95-.63,5.59-2.89,8.19l-7.34,8.43c-.61,1.73.62,5.84-1.79,7.42l-6.71,4.41-6.73,4.62c.27,1.75.11,4.88-.77,6.52l-4.34,8.07c-1.98,3.69-8.5,5.5-9.67,9.53l-1.95,6.77-12.34,8.08-5.75,2.52-13.79,9.65c-5.81,4.07-9.25,6.51-15.92,7.43-9.51,1.32-5.76,2.31-13.18,8.32-1.82,1.47-3.74,3.95-4.14,5.37,3.32.92,4.85,1.02,5.26,2.9Z"/>
    <path class="cls-12" d="M102.88,77.66c.5,3.34,4.23.37,5.99,4.81.41,1.04-2.08,2.12-4.09,3.15,10.57,7.9,16.54,1.8,22.45,13.27l12.51,4.99c3.86,3.11,6.64,8.19,11.08,10.07,2.95,1.25,7.22,2.04,7.57,5.16.63,5.63,4.88,8.18,8.39,12.04l8.98,9.87c1.63,1.79,4.5,3.09,6.6,4.52,1.98,5.71,5.95,10.41,10.54,14.1l2.53-.5c.65-.13,1.3,1.86,1.5,2.6,3.59,13.66,8.05,8.2,10.62,21.41.69,3.54,6.36,6.31,7.37,9.46,1.32,4.11,2.37,8.26,5.88,10.74-2.79.05-5.4,2.05-7.58,4.4l-1.6,1.72c-.3.32-1.23-.69-1.47-.87-2.49-6.11-5.48-11.98-9.03-18.05l-6.19-10.6c-16.44-28.16-46.34-58.63-73.29-77.01-4.92-3.35-9.88-6-15.24-8.68l-13.39-6.7,5.06-5.83c1.39-1.6,3.06-2.98,4.83-4.08Z"/>
    <path class="cls-14" d="M221.03,378.97c-1.56,11.96-5.59,8.3-13.69,22.95-5.39,9.74-11.92,18.91-15.47,26.32-1.96,4.08-2.11,8.3-8.37,8-1.75,4.68-6.45,6.92-9.49,10.36-5.82,6.58-9.68,15.88-18.11,19.97-9.87,4.79-8.88,6.2-18.76,15.19-2.73,2.48-8.79,2.64-11.31,5.6-2.3,2.76-4.57,8.39-8.4,8.07-1.38-.12-4.5-2.69-5.7-2.01-6.5,3.67-9.04,6.55-8.66,13.14l-2.19-1.17-5.92-7.7c5.87-4.72,13.68-6.78,20.45-11.01,13.15-8.21,27.65-19.82,39.43-30.21,3.76-3.32,20.02-19.5,22.92-22.91,6.13-7.21,12.85-17.03,17.85-25.12l7.79-12.58c7.85-12.68,4.64-11.04,10.6-20.28l7.03,3.39Z"/>
    <path class="cls-24" d="M505.17,81.52l3.97,5.93-20.88,10.19c.06-1.67-1.29-3.81-2.77-3.72l-9.03.59c.52-1.58,2.02-2.6,3.71-3.3l5.89-2.45c4.55,2.04,11.09-3.45,11.93-10.06,2.88-.24,5.64.5,7.19,2.82Z"/>
    <path class="cls-19" d="M494.21,494.59c5.42,2.41,4.55,9.53,8.07,9.23l.67.87c-1.12,2.17-3.36,3.55-5.87,3.55l-.75-1.6c-.59-1.26-4.88,3.08-6.83,1.56l-3.24-2.52c-.3-8.55-10.67-7.5-11.11-13,3.93.52,7.98,2.85,11.33,4.88.79-1.49,1.97-3.83,3.08-3.77,1.17.06,3.63.36,4.64.81Z"/>
    <path class="cls-19" d="M398.12,410.66l.62,1.83c.2.6-1.36,1.25-3.03,2.29l7.63,7.7c2.73,2.75,4.19,4.84,5.11,9.15,9.3,8.07,5.52,8.98,12.57,11.15,4.19,1.29,6.84,6.02,9.77,9.37l12.08,13.81c1.92.88,6.17,1.86,7.75,3.27l10.56,9.4c1.85,6.45,3.5.08,10.18,6.69,2.33,2.31,3.57,4.54,3.79,7.35-3.37-.45-6.59.18-9.64,1.79l-5.9-7.35c-1.17-1.46-4.49-3.76-6.19-5.01-6.79-.56-11.02-4.85-15.26-9.69l-11.75-5.7c-9.73-4.72-4.8-1-11.23-10.99.23-4.42-4.92-7.93-7.16-10.98-2.99-4.07-5.33-12.51-4.5-11.98l-2.81-1.81c-1.79-1.15-3.43-1.8-5.83-2.42-1.5-2.02-4.11-6.94-4.05-9.52l.84-6.74,6.45-1.63Z"/>
    <path class="cls-24" d="M497.08,508.24l-.22,1.32-11.73,6.04c-.06-1.44-1.78-3.76-3.18-4.7.02-2.43,2.03-4.01,4.3-5.24l3.24,2.52c1.95,1.52,6.24-2.82,6.83-1.56l.75,1.6Z"/>
    <path class="cls-12" d="M121.07,507.83l1.1,2.04c-2.52-.22-6.82,2.18-8.01,3.92l-8.95-2.83c-.64-.67-.99-2.28-.94-3.27,1.75.55,16.57,2.83,16.79.14Z"/>
    <path class="cls-19" d="M488.98,72.49c-1.77,9.64-14.37,13.23-22.7,16.71-7.44,3.11-9.38,10.55-22.08,9.52-4.12,9.1-6.71,11.4-14.35,16.01-14.24,8.6-8.59,10.26-18.91,19.05.64.85,2.34,3.75,2.14,5.06-.67,4.28-5.77,7.63-9.55,9.07l-1.45,7.93-10.11,2.03c-9.84,10.92-12.92,18.94-22.84,28.88-3.42,3.43-6.52,6.99-11.34,8.81l3.3,1.9c.85.49-.63,3.32-1.22,4.25l-7,11.05c-1.63,2.58.4,8.75-5.23,9.63-2.32,9.52-2.08,6.84-3.12,17.5-.42,4.33-1,8.91-5.28,10.72-7.6,3.22,4.34,6.47-3.06,18.1,5.36,3.97,7.03,11.15,4.36,17.34l-4.73,1.77c1.12,2.03,3.48,5.56,2.93,7.32-.92,2.95-3.82,5.72-5.44,7.64,1.06,3.28,1.34,6.75-.59,9.3-2.93,3.88,1.65,6.67,2.17,9.77l3.83,22.73c1.06,6.26,1.9,12.93-3.56,17.05-1.01-1.89-1.79-3.94-2.74-6.61-3.39-9.48-6.99-5.34-4.28-19.15-4.17-4.05-7.72-16.83-7-21.02.79-4.59,1.61-10.52,1.29-14.89-4.83-2.55-3.03-5.52-3.09-10.41l-.13-10.77c0,.11,4.44-24.25,4.74-25.61l2.38-10.96c.62-2.87,3.73-3.98,4.46-5.62l4.7-10.58-.58-3.03c-.34-1.78,4.65-2.87,4.07-4.06l-1.57-3.22c-.92-1.89.25-5.53,1.39-8.03,6.31-13.89,5.81-3.56,13.06-19.43l6.01-13.17c1.32-2.88,5.4-5.6,6.98-8.55,1.3-2.44,3.34-3.85,5.72-4.55,2.04-4.26,2.87-9.92,7.28-12.2l2.78,1.47c.73.39,2.91-1.34,2.96-2.15l.44-6.24c2.58-2.12,4.7-5.44,7.22-7.94,3.62-3.6,7.25-6.73,10.13-11.01,4.3-6.38,6.43-6.2,13.58-12.25,1.9-1.61,3.82-5.7,6.12-6.61,11.1-4.39,2.02-2.21,15.2-9.66,2.57-1.45,5.57-4.54,8.32-5.81s4.92-2.46,7.44-3.92l12.51-7.22c7.57,1.22,14.67-10.24,24.47-5.97Z"/>
    <path class="cls-10" d="M488.25,97.65l-9.5,6.97c-19.13,14.04-36.88,30.01-51.79,48.62l-8.63,10.76c-2.15,2.68-13.95,20.15-15.06,22.37-2.42,4.85-4.45,9.04-6.92,13.64l-8.06,15.03c-2.13,3.98-3.07,7.44-4.19,12.01-.8,3.26-5.75,6.96-5.57,10.63.15,3.02.58,6.08-1.2,8.13-2.69,3.09-2.41,6.18-3.27,9.69s-1.71,6.46-1.8,10.11l-.74,6.22c-.23,1.91.86,6.28-.25,7.88-3.34,4.8-1.15,9.33-.97,14.03.14,3.79-2.54,7.96-.19,12.21.81,1.46.55,4.84,0,6.84-.97,3.51.95,6.98,1.34,10.07.67,5.34.97,9.23,3.79,13.95.38,2.46-.21,7.54.85,9.7-4.56-.09-3.27,3.85-9.09,3.22l-2.15-1.98-1.46,5.23c-1.01-5.42.08-10.25-1.23-14.59-1.12-3.72-2.89-6.95-1.37-11.08s.06-7.62-3.26-9.98l-.02-7.82c-.02-9.64-1.87,3.07,1.59-13.38.19-.89-2.54-1.97-2.51-2.05.69-2.08,1.03-3.51,1.23-5.51l1.03-10.31c-6.7-8.44,5.32-8.14,1.01-18.23-1.13-2.65-.23-5.76,1.95-7.51,5.16-4.14,1.46-8.96,5.05-16.9,8.38-7.59-.37-9.96,7.62-14.63l1.6-9.7c4.02.32,4.63-3.11,5.08-6.58l4.13-4.92c.87-4,1.97-8.99,3.33-12.17,3.86-.93,6.07-2.1,6.77-5.89,2.24-12.06,8.18-4.58,8.1-19.06,8.16-1.81,12-8.94,14.86-16.1,7.48-2.23,11.71-14.43,13.73-15.73l6.13-3.94,7.37-8.38c.44-.5.26-3.09.83-3.26l3.39-1.06c4.83-1.51,8.46-7.62,12.15-10.65,6.08-1.74,12.32-2.39,14.51-9.04l9.03-.59c1.47-.1,2.83,2.04,2.77,3.72Z"/>
    <path class="cls-10" d="M407.24,462.83l6.2,8.27,10.27,8.69c.82-.64,2.1-2.07,2.48-1.6l1.56,1.97c2.23,2.83,4.61,8.31,8.29,9.31,4.84,1.32,8.04,3.01,10.74,7.54l6.43,1.41c2.34,2.24,4.42,4.05,7.25,4.91l8.01,2.41c4.74,1.43,8.95,4.88,13.5,5.17,1.4.94,3.12,3.26,3.18,4.7-1.67,1.57-4.27,2.82-6.12,4.12l-11.09-2.59c-9.88-2.31-29.2-12.03-37.25-17.88l-15.03-10.92-7.05-5.17c-3.82-2.8-7.14-5.78-9.72-9.08l3.92-5.64,3.1-2.39c.68-.53-.4-2.58-.62-3.26l1.98.04Z"/>
    <path class="cls-1" d="M495.15,491.85l-.94,2.74c-1.01-.45-3.48-.75-4.64-.81s-2.29,2.28-3.08,3.77c-3.35-2.03-7.4-4.36-11.33-4.88-.22-2.81-1.46-5.04-3.79-7.35-6.68-6.61-8.33-.24-10.18-6.69l5.12-5.18,9.68,6.1,11.57,7.43,7.6,4.86Z"/>
    <path class="cls-1" d="M475.15,492.68c.44,5.5,10.8,4.45,11.11,13-2.27,1.23-4.28,2.81-4.3,5.24-4.55-.29-8.75-3.74-13.5-5.17l-8.01-2.41c-2.84-.86-4.92-2.67-7.25-4.91l-6.43-1.41c-2.7-4.54-5.9-6.22-10.74-7.54-3.67-1-6.05-6.49-8.29-9.31l-1.56-1.97c-.37-.47-1.65.96-2.48,1.6l-10.27-8.69-6.2-8.27,7.94-7.1c6.43,9.99,1.5,6.27,11.23,10.99l11.75,5.7c4.24,4.84,8.48,9.13,15.26,9.69,1.7,1.25,5.01,3.54,6.19,5.01l5.9,7.35c3.05-1.62,6.27-2.24,9.64-1.79Z"/>
    <path class="cls-10" d="M329.3,363.79c6.81,10.76,3.03,4.43,7.43,14.15l3.89,8.58c.77,1.71,3.03,4.23,4.9,6.76l.69-4.99c2.28,8.36,4.05,15.93,9.05,23.16l1.17-2.62,4.76,7.16,1.25-3.22c1.36,3.82,2.99,7.24,5.28,11.03l2.62,5.82c1.23-.2,4.24-1,4.99-.08.89,1.08,1.99,2.68,2.7,3.9-1.16-.4-4.4-1-5.6-.41-2.07,2.04-5.47,5.41-7.97,6.5l-7.36-7.86-13.56-19.36-4.89-7.34c-2.99-4.49-5.56-9.58-8.17-14.51-7.27-13.7-3.1-13.26-10.27-24.81l9.09-1.87Z"/>
    <path class="cls-1" d="M480.98,65.7c.92-.63,12.23,4.69,10.02,6.78-.51-.03-1.48,0-2.02.01-9.81-4.26-16.9,7.2-24.47,5.97l-12.51,7.22c-2.52,1.45-4.6,2.6-7.44,3.92s-5.75,4.36-8.32,5.81c-13.17,7.44-4.09,5.26-15.2,9.66-2.3.91-4.22,5-6.12,6.61-7.15,6.05-9.28,5.88-13.58,12.25-2.88,4.27-6.51,7.4-10.13,11.01-2.52,2.51-4.64,5.83-7.22,7.94l-3.08-.19c-.43-2.39-3.48-2.37-5.74-1.83,6.9-9.04,15.07-17.24,23.79-25.18l8.42-7.68,5.94-5.06c17.11-14.59,45.9-33.22,67.66-37.23Z"/>
    <path class="cls-12" d="M401.95,401.63c5.5,9.37,15.1,22.78,22.21,32.12,1.83,2.41,5.11,5.32,7.34,7.46l16.84,16.24c5.88,5.67,12.76,10.13,17.97,16l-5.12,5.18-10.56-9.4c-1.58-1.41-5.83-2.39-7.75-3.27l-12.08-13.81c-2.93-3.35-5.57-8.08-9.77-9.37-7.05-2.17-3.27-3.08-12.57-11.15-.92-4.31-2.38-6.4-5.11-9.15l-7.63-7.7c1.67-1.05,3.23-1.69,3.03-2.29l-.62-1.83c-.34-1.65-1.26-4.54-2.02-6.22l5.85-2.8Z"/>
    <path class="cls-24" d="M321.1,314.86c-.72,4.19,2.83,16.96,7,21.02-2.71,13.81.89,9.66,4.28,19.15.96,2.67,1.74,4.72,2.74,6.61l2.08,3.89c-1.71.21-4.15.17-4.62-.7l-1.69-3.19-1.6,2.15-9.09,1.87c-.57-2.41-1.47-5.7-2.26-8.39l-3.26-11.11c-.75-2.56-.28-7.47-.51-10.19-5.04-2.56-1.3-3.15-3.75-16.39-.45-2.45-.98-4.92-1.2-6.87.49.22,1.62,1.16,1.86,1.76l1.05,2.62c.3.75,2.74.29,3.48,0l5.48-2.23Z"/>
    <path class="cls-8" d="M378.03,433.45c3.04,5.19,2.72,14.89,8.28,12.21,3.68-1.77,1.94,3.61,8.86,10.85l5.59,5.86-1.14-4.68,5.63,5.1c.23.68,1.3,2.73.62,3.26l-3.1,2.39-3.92,5.64c-11.36-4.83-29.21-28.99-34.41-34.54,2.5-1.09,5.9-4.46,7.97-6.5,1.2-.6,4.44.01,5.6.41Z"/>
    <path class="cls-24" d="M376.09,346.5c3.22,6.62,5.18,13.72,8.49,20.75l4.79,10.15c4.01,8.51,8.02,16.48,12.57,24.23l-5.85,2.8c-5.85-12.92-10.37-11.42-14.68-23.56-1.43-4.01-5.66-7.88-7.49-11.68l-5.27-10.93c-.93-1.92-1.22-6.33-1.66-8.54,5.82.62,4.53-3.32,9.09-3.22Z"/>
    <path class="cls-1" d="M265.15,209.69c1.67,2.06,1.05,5.65,2,8.1l8.6,22.14,2.16,5.76c.73,1.96.23,6.44.44,8.64l3.01,2.48c1.98,1.64-2.68,6.09,0,13.79,1.52,4.37,3.36,10.62,3.99,14.66-.46.85-3.48,2.1-3.16,2.92l1.5,3.85c.45,1.17.94,4.58.56,5.75s-2.34,1.81-3.76,2.71l1.44,9.3c-8.15,3.28,3.92,12.24-3.61,19.15-4.17,3.82-3.65,9.69-2.12,15.12l-3.23,9.03-2.68-4.3c.03,3.44.28,7.45-.03,10.85-.21,2.33-2.81,5.5-3.87,7.4-.14-2.82-.36-4.48-2.47-8.18l-4.7,9.6,3.08,3.26-.78,15.62-6.1,6.31-.79-7.02c-2.57,10.58-3.77,19.4-12.71,28.58l-1.51-4.79c-5.9,9.58-2.15,12.76-13.11,21.06l-2.24-.16c-.88-.06-3.14,14.65-9.9,15.61l-.18-1.79c-.03-.32-.81-.32-.86,0l-.22,1.35c-2.37.37-3.06,5-3.98,4.57l-1.86-.87c-1.35,4.88-4.81,10.66-9.05,13.08-1.07-.02-3.13-.49-3.98-.18s-2.09,2.35-2.33,3.37c-.86,3.67-4.04,4.4-6.53,6.37-3.14,2.48-6.06,5.72-9.07,7.83l-.81-3.1-7.52,9.72c-2.54,3.28-6.01,5.22-10.23,3.48l-3.94,5.83c-1.22,1.81-6.69,1.37-8.39,2.16-1.15,5.31-11.2,6.33-14.09,7.83-4.16,2.16-5.93,3.64-9.94,3.29l-1.1-2.04c-.41-1.88-1.94-1.98-5.26-2.9.4-1.42,2.32-3.9,4.14-5.37,7.42-6.01,3.67-7,13.18-8.32,6.66-.93,10.11-3.37,15.92-7.43l13.79-9.65,5.75-2.52,12.34-8.08,1.95-6.77c1.18-4.03,7.69-5.84,9.67-9.53l4.34-8.07c.88-1.64,1.04-4.77.77-6.52l6.73-4.62,6.71-4.41c2.41-1.59,1.18-5.7,1.79-7.42l7.34-8.43c2.26-2.59,2.57-5.23,2.89-8.19,6.45-3.41,5.42-19.88-.14-21.9-1-.52,5.41-12.7,7.03-10.86l2.2,6.31,1.22-8.26,3.3,4c1.64-3.33,2.48-4.57,4.8-6.75l.93-9.95c3.8-2.16,3.26-5.85,4.51-9.3,1.84-5.07,3.87-10.27,4.74-15.55l2.12-3.43c1.88-3.03-6.97-7.7-5.76-12.17,8.44-3.68,2.68-8.89,5.98-11.09,1.66-1.11,3.74-4.02,3.36-6.33-.45-2.77-2.02-4.63-5.43-5.14l-4.74,3.79c-4.04-5.83-2.05-14.25-2.79-19.18,2.15.27,2.96,2.4,3.03,5.47.54.44,4.01.34,4.97-.63,3.58-3.58-.41-5.56,2.99-13.31,1.94-4.42-2.23-6.76-3.65-10.02-.95-2.19-2.4-6.95-2.21-9.27.16-1.97,3.63-6.01-4.82-13.06-1.03-.86-3.03-2.71-2.54-3.71l1.85-3.83c1.11-2.29,1.78-6.77,1.73-9.34l-2.76-6.58c4.33,2.5,5.28,5.57,9.49,4.6.51-4.75.54-12.52-.44-16.43-.18-.74.26-2.27.6-3.33l12.44,15.36Z"/>
    <path class="cls-1" d="M213.88,446.51l1.25.44c.51.66-.83-.1-1.25-.44Z"/>
    <path class="cls-24" d="M220.79,203.35l1.99,5.79,1.68,4.88c.83,3.92,3.18,6.73,5.56,9.49,1.45,1.67,1.29,7.37,3.25,8.43l3.28,1.77c.7.38.54,3.06.38,3.88-2.82,14.33,7.47,12.52,4.83,21.65-2.39,8.26,1.52,6.67,2.7,14.53.74,4.93-1.25,13.35,2.79,19.18-1.34,1.07-1.18,1.24-5.17,2.09l2.1,8.22c.56,2.19.58,16.55-3.27,20.76-.25,3.35,1.57,8.94,1.14,12.32l-1.68,13.06-2.17-1.53c-.65-.46-1.38,2.19-1.66,3.16-1.82,6.44-6.51,5.63-6.52,15.78-1.62-1.84-8.02,10.34-7.03,10.86l-1.96,1.29-7.03-3.39c.32-3.17,3.09-6.18,4.24-9.39,1.8-5.05,3.32-9.96,5.5-14.85,2.35-5.25,3.73-9.63,2.57-15.36l4.32-8.31c-.12-4.93.09-9.5.61-13.64.24-1.9-.96-6.31.11-7.87,2.66-3.86-.22-9.6.47-13.11,2.83-14.44-1.4-4.67-2.72-27.15-.12-2.09,1.05-4.88-.19-6.78-1.92-2.95-2.02-5.84-2.02-9.48l-4.29-7.59c.96-11.56-2.07-4.43-5.91-20.15-1.15-4.71-4.82-9.02-6.56-13.3.25.18,1.18,1.19,1.47.87l1.6-1.72c2.18-2.35,4.79-4.35,7.58-4.4Z"/>
    <path class="cls-14" d="M269.07,203.51c-2.22.76-3.38,3.71-3.92,6.18l-12.44-15.36c-.34,1.06-.79,2.6-.6,3.33-6.09-2.23.84-10.65-8.06-11.2l-4.82-5.6c.91-3.51.42-6.31-1.19-9.09l-6.09-10.48c-1.27-2.19-4.83-5.45-6.79-7.38-5.77-.24-6.51-4.58-7.93-8.81-2-5.97-7.83-10.11-12.41-14.17-3.27-2.9-5.77-8.31-8.41-11.3-7.87-4.41-12.64-10.43-18.21-16.8-2.91-1.65-6.13-3.29-8.06-6.06l2.9-5.11c5.93,2.3,10.72,6.87,15.93,11.14,20.43,16.69,37.26,35.99,52.79,57.2l10.57,14.44,10.56,16.56c2.65,4.15,5.26,8.09,6.2,12.49Z"/>
    <path class="cls-1" d="M120.77,65.4c8.27,2.9,19.32,4.34,26.52,10.35-.06,1.73.51,3.85,1.95,5.17,1.23,1.14,3.56.13,4.62-1.44,7.18,2.43,13.42,7.19,19.16,12.19l-2.9,5.11c-1.84-2.64-7.94-2.89-10.81-2.53-4.19-6.66-10.13-10.08-17.29-12.66-3.23-1.16-5.77-5.63-10.18-1.8-6.71-9.96-17.55-3.62-17.07-10.32,1.31-1.89,3.8-3.64,5.98-4.08Z"/>
    <path class="cls-11" d="M208.32,222.81c-1.04,2.97-2.91,5.66-4.61,8.51-2.45,4.09-3.07,8.82-9.51,9.71-2.83,18.73,3.9,3.24-3.85,18.02-1.93,3.68-3.28,9.95-8.81,9.94l-11.47-.03-1.44,9.77c-9.18,2.39-6.23-5.61-20.22,3.29-8.15,5.18-11.11,8.47-17.61,11.02-1.02.4-3.13,2.44-2.73,3.29l1.73,3.66c.25.52-.07,2.28-.67,2.3l-3.04.08c-.67.02-2.42-.14-2.51.33l-.52,2.64c-.89,4.5,10.24-5.4,12.82.17,1.7,3.67-2.78,4.19-4.92,5.2-4.08,1.92-8.65,5.95-13.27,2.97-10.22-6.6-6.95.98-13.98-5.94-1.05-1.03-4.32-.3-5.18.87-2.84,3.83.66,8.8-7.65,9.88-6.55.86-10.37,5.18-10.18,5.73l1.4,4.11-4.55,4.19c-3.86,25.8-9.68,1.19-21.48,20.29-3.25-2.64-6.36-3.38-10.11-2.47l-8.41-3.33c-3.8-1.5-9.59-2.21-11.29,3.16l.28,9.99c-1.79,3.7-4.21,7.61-4.55,11.4l-1.11,12.22c-7.71-18.51-11.3-38.98-14.02-59.08.65-.51,1.22-2.07,1.54-3.59.2-.94-1.23-2.58-2.35-2.41l-.2-4,1.26-.96.17-12.72c2.42.75,11.1,9.83,13.04,5.14,4.73-11.45.65-1.99,11.68-10.18,3.15-2.34,5.33-.26,8.18.11,3.29.42,5.38-5.4,7.41-8.04,1.35-1.76,6.02-1.03,8.77-.41,2.54-4.27,3.23-9.65,2.91-15.17-.2-3.4,6.35-6.52,8.95-3.76,3.15,3.35-1.5,12.34.52,11.99l1.97-.33,2.76-.45c.59-.1.61,2.18.56,2.83l-.93,14.01,3.28,1.27c1.33.52-.22,10.02,1.22,13.89l7.14,4.03,3.38-7.22,1.8,2.53c.35.49,2.21-1.04,2.49-1.64,4.06-8.72-.84-35.72,12.27-30.08,7.08-15.82,2.22-14.85,12.78-32.5l.94,1.07c.22.25.87,1.64.99,1.34.16-.38.54-1.15.62-1.47.69-2.77,2.52-7.95,4.19-11.21l2.95,5.35,10.9-18.84,2.18,4.55,4.73-16.06c1.24-4.22,5.88-8.38,8.81-12l-1.31,10.21c3.96-3.78,2.25-12.22,11.32-15.05-1.1,3.11-1.73,6.64-2.64,10.7,9.81-6.39,5.88-16.96,16.63-25.02l-.18,3.18c1.88-1.53,4.08-3.88,5.58-6.19.66,1.19,1.15,4.11,1.74,5.51,2.56,4.43,8.15,7.71,10.36,12.37,1.23,2.59,2.17,5.35,3.65,7.29.62.81,2.14,1.97,1.91,2.57l-1.31,3.33c3.6,4.31,6.74,9.16,8.82,14.16ZM176.9,187.04c.23-.28-1.15-1.89-1.31-1.5l-.79,1.92-1.66,4.13,3.75-4.55ZM80.45,321.7c-.22-1.11-1.26-3.87-1.72-3.45s-1.89,1.19-1.59,1.74l1.04,1.93c.24.45,2.36.3,2.26-.21Z"/>
    <path class="cls-3" d="M224.04,292.71l-4.33-2.89c-3.98-2.65-11.08-3.97-13.19,1.19-1.18,2.89-2.14,5.03-4.39,6.63s-5.22.27-8.07.41c-4.66.23-6.65,6.84-7.69,11.02l-10.08,5.17c-3.22,1.65-3.3,7.79-4.79,10.72-3.47,2.4-8.17,3.38-12.43,4.64-6.93,2.05-.79,2.95-15.6,8.69-12.07,4.67-10.02-1.41-14.63-.8-3.4.45-2.05,12.46-15.61,10.35l-11.82,10.21c-18.37,15.87-16.56-3.43-31.9,7.35-2.8,1.97-6.96,4.55-8.94,7.25-3.47,4.72-5.9,2.16-9.96,1.59-5.01-.71-11.86-.9-16.85.36-3.75.95-5.89,8.21-5.2,11.31,4.02,4.96,5.5,13.52-.21,17.03-2.36-6.25-6.83-12.28-7.49-19.15l1.11-12.22c.34-3.79,2.77-7.7,4.55-11.4l-.28-9.99c1.69-5.37,7.49-4.67,11.29-3.16l8.41,3.33c3.75-.92,6.86-.18,10.11,2.47,11.8-19.11,17.62,5.51,21.48-20.29l4.55-4.19-1.4-4.11c-.19-.55,3.63-4.87,10.18-5.73,8.31-1.09,4.81-6.05,7.65-9.88.87-1.17,4.14-1.91,5.18-.87,7.02,6.93,3.76-.66,13.98,5.94,4.62,2.98,9.19-1.05,13.27-2.97,2.14-1.01,6.63-1.53,4.92-5.2-2.59-5.56-13.71,4.33-12.82-.17l.52-2.64c.09-.47,1.84-.31,2.51-.33l3.04-.08c.6-.02.92-1.78.67-2.3l-1.73-3.66c-.4-.85,1.71-2.89,2.73-3.29,6.5-2.55,9.46-5.84,17.61-11.02,13.99-8.89,11.04-.9,20.22-3.29l1.44-9.77,11.47.03c5.53.01,6.88-6.25,8.81-9.94,7.75-14.78,1.01.71,3.85-18.02,6.43-.9,7.06-5.63,9.51-9.71,1.71-2.85,3.57-5.54,4.61-8.51,7.3,6.97-1.05,7.09,7.27,18.57.62.86,1.61,2.99,1.7,3.93s-1.45,2.37-2.21,3.4l2.05,7.22c.58,2.06,3.94,5.63,3.75,7.7-.95,10.49,5.59,9.95-.88,14.39.43,2.53.87,5.93,1.65,8.09l2.39,6.6Z"/>
    <path class="cls-17" d="M129.31,119.81c-4.98,2.73-10.26,6.53-14.32,10.4l1.69,2.96c.56.97-15.81,14.03-15.78,17.46l-2.8,2.53,2.69,1.06c1.12.44-22.15,25.21-23.12,29.97l5.71-1.24c-4.46,7.04-8.41,12.8-12.06,20.49l8.09-1.58-6.29,9.87-7.31,6.7c-7.42,6.81-5.82,12.81-9.6,13.74-4.25,1.05-6.72-3.9-8.44-2.71l-3.56,2.46c-1.22.84-2.8,1.88-3.86,2.54-.58.36-9.77-7-19.89-2.67-5.08,2.17-8.28,6.74-8.65,11.49l-2.9,1.33c9.12-57.77,38.38-112.27,80.31-152.91l7.42,2.91,2.62,5.51c4.45-.16,6.61,1.5,9.64,3.59,3.27,2.26,6.85,4.66,10.35,6.83,4.13,2.55,9.29,3.89,10.06,9.3Z"/>
    <path class="cls-2" d="M73.11,211.71c-2.51-.65,19.75,17.2,17.43,15.57l8.17,5.75c2.95,2.08,5.29,4.56,9.01,5.21s9.28,2.03,10.92,5.45c.45.94,1.02,4.57,1.34,4.28-.08.32-.46,1.09-.62,1.47-.13.3-.77-1.09-.99-1.34l-.94-1.07c-10.55,17.65-5.7,16.68-12.78,32.5-13.11-5.63-8.21,21.37-12.27,30.08-.28.6-2.14,2.14-2.49,1.64l-1.8-2.53-3.38,7.22-7.14-4.03c-1.44-3.87.11-13.37-1.22-13.89l-3.28-1.27.93-14.01c.04-.65.03-2.92-.56-2.83l-2.76.45-1.97.33c-2.02.34,2.63-8.64-.52-11.99-2.6-2.77-9.15.35-8.95,3.76.32,5.52-.36,10.89-2.91,15.17-2.75-.62-7.42-1.35-8.77.41-2.03,2.64-4.12,8.47-7.41,8.04-2.85-.37-5.03-2.45-8.18-.11-11.02,8.19-6.95-1.27-11.68,10.18-1.94,4.69-10.62-4.39-13.04-5.14l-.17,12.72-1.26.96c-.71-13.85-2.03-28.3.08-42l1.33-1.52c.35-.4-.99-1.44-1.28-1.48l.04-3.09c1.03-.27,2.69-.82,2.67-1.78l-.06-3.55-2.53,1.48c.63-6.1,1.89-12.19,2.83-18.17l2.9-1.33c.37-4.75,3.57-9.32,8.65-11.49,10.12-4.33,19.31,3.03,19.89,2.67,1.06-.66,2.64-1.7,3.86-2.54l3.56-2.46c1.72-1.19,4.18,3.75,8.44,2.71,3.78-.93,2.18-6.92,9.6-13.74l7.31-6.7Z"/>
    <path class="cls-22" d="M224.04,292.71c1.47,4.06-2.06,8.13-1.93,11.99-3.05-.17-5.01,2.68-7.41,4.52-4.19,3.21-5.84,5.88-7.74,10.56-1.11,2.74-3.12,5.66-3.83,8.87-2.68,12.24-7.74,5.98-12.7,13.32-3.25,4.79-6.93,7.98-13.12,7.9-6.78,7.54-5.72,13.19-8.92,16.68-1.99,2.17-3.14-8.53-17.84.75-3.8,2.4-7.87,4.97-10.96,7.69-3.6,3.17-6.33,5.12-10.91,6.42-16.05,4.55-15.5-7.22-22.31,2.94-1.21,1.4-4.84,2.96-6.83,3.74-7.99,3.16-1.08,9.19-5.74,12.22-3.24,2.11-18.32-6.87-29.36-2.51l-8.59,9.27c-4.86.58-7.8,1.64-11.91,3.36-9.89,4.13-3.92,7.69-7.84,8.32-2.78-5.08-5.62-10.18-7.75-15.81,5.71-3.51,4.23-12.07.21-17.03-.69-3.1,1.45-10.37,5.2-11.31,4.99-1.26,11.84-1.06,16.85-.36,4.05.57,6.49,3.13,9.96-1.59,1.98-2.69,6.14-5.28,8.94-7.25,15.34-10.78,13.53,8.52,31.9-7.35l11.82-10.21c13.56,2.1,12.21-9.91,15.61-10.35,4.62-.61,2.56,5.48,14.63.8,14.81-5.73,8.68-6.63,15.6-8.69,4.26-1.26,8.96-2.24,12.43-4.64,1.48-2.92,1.56-9.06,4.79-10.72l10.08-5.17c1.04-4.17,3.03-10.79,7.69-11.02,2.85-.14,5.87,1.15,8.07-.41s3.21-3.74,4.39-6.63c2.11-5.16,9.21-3.84,13.19-1.19l4.33,2.89Z"/>
    <path class="cls-20" d="M222.11,304.7l.52,16.16-3.23-1.61,1.87,16.32-3.47-.31-.71,6.47c-3.04-.05-5.03,1.54-7.04,3.99l-3.98,4.83c-1.74,6.77-6.47,11.5-13.78,12.38l-3.67,11.49-5.07,5.3c-4.26-1.78-6.79-.74-9.9,1.65-10.16,7.8-10.28,1.56-15.22,9.15-4.02,6.17-11.24-3.63-19.29,5.33-2.65,1.53-7.28,3.05-10.53,4.28-2.54,6.89-9.24,7.56-15.09,10.27l-8.2,5.64c-3.41,2.34-6.73,2.66-10.84,3.45-4.53.87-8.86,2.31-13.34-.8-4.21,6.88-10.17,6.84-17.07,7.63l-15.66,1.79-4.16,5.55-8.16-14.9c3.92-.63-2.05-4.2,7.84-8.32,4.11-1.72,7.06-2.78,11.91-3.36l8.59-9.27c11.03-4.37,26.12,4.61,29.36,2.51,4.66-3.03-2.25-9.07,5.74-12.22,2-.79,5.62-2.34,6.83-3.74,6.8-10.16,6.26,1.61,22.31-2.94,4.58-1.3,7.31-3.25,10.91-6.42,3.09-2.72,7.16-5.29,10.96-7.69,14.7-9.28,15.85,1.43,17.84-.75,3.2-3.49,2.14-9.14,8.92-16.68,6.19.08,9.88-3.1,13.12-7.9,4.96-7.33,10.02-1.08,12.7-13.32.7-3.21,2.71-6.12,3.83-8.87,1.9-4.68,3.55-7.34,7.74-10.56,2.4-1.84,4.36-4.68,7.41-4.52Z"/>
    <path class="cls-5" d="M217.1,341.72c-.21,1.95-1.12,3.74-2.47,5.64-2.45,3.47,4.2,6.24-3.7,11.44l-1.91,9.49c-4.08,5.85-8.93,19.02-13.19,25.17l-5.74,8.27c-1.34,1.94-3.21,4.16-4.16,5.91l-7.23-3.85c-6.12,4.94-8.65,12.66-12.81,13.57-1.74-2.3-3.44-2.97-5.61-1.98-4.55,2.08,1.89,9.47-5.85,8.66-1.44-.15-3.06-1.8-4.44-3.38-2.13-2.44-8.39-.47-8.39,3.21,0,4.07-3.19,9.78-7.66,8.11-1.23-.46-3.86-2.67-5.05-2.14-5.84,2.62-4.55,6.05-8.31,6.32-1.4.1-4.09-1.73-5.76-2.62-4.6,1.99-10.67,3.06-16,1.14-2.11,1.05-4.74,3.32-6.37,5.37-2.39,3.01-6.9,2.64-9.82,4.23l-10.37,5.66c-4.88,2.66-7.7,6.93-9.11,11.72-6.63-9.13-13.42-17.98-18.9-28l4.16-5.55,15.66-1.79c6.9-.79,12.87-.75,17.07-7.63,4.48,3.11,8.81,1.68,13.34.8,4.11-.79,7.43-1.11,10.84-3.45l8.2-5.64c5.84-2.71,12.54-3.38,15.09-10.27,3.25-1.23,7.88-2.75,10.53-4.28,8.05-8.96,15.27.85,19.29-5.33,4.94-7.59,5.06-1.35,15.22-9.15,3.11-2.39,5.64-3.43,9.9-1.65l5.07-5.3,3.67-11.49c7.31-.89,12.05-5.62,13.78-12.38l3.98-4.83c2.01-2.44,4-4.04,7.04-3.99Z"/>
    <path class="cls-21" d="M210.14,208.6c1.74,4.28,5.41,8.59,6.56,13.3,3.84,15.72,6.87,8.59,5.91,20.15l4.29,7.59c0,3.64.09,6.53,2.02,9.48,1.24,1.9.07,4.68.19,6.78,1.33,22.48,5.56,12.72,2.72,27.15-.69,3.51,2.19,9.25-.47,13.11-1.08,1.56.13,5.97-.11,7.87-.53,4.14-.74,8.71-.61,13.64l-4.32,8.31c1.16,5.73-.22,10.11-2.57,15.36-2.19,4.89-3.7,9.8-5.5,14.85-1.14,3.21-3.92,6.21-4.24,9.39-5.96,9.23-2.75,7.6-10.6,20.28l-7.79,12.58c-5,8.08-11.73,17.9-17.85,25.12-2.9,3.41-19.16,19.59-22.92,22.91-11.78,10.39-26.29,22-39.43,30.21-6.78,4.23-14.59,6.29-20.45,11.01l-3.77-3.6c4.27-.74,6.87-4.84,8.01-8.94,11.86-.57,8.13-4.85,10.2-5.07l4.65-.48c1.75-2.69,4.79-6.28,8.2-6.35,5.36-.1,5.85-5.31,8.84-7.19,4.1-2.59,8.66-4.01,11.43-8.19l3.99-6c7.04.49,8.78-6.1,12.78-10.19,2.46-2.52,6.9-4.07,9.15-7.56l8.36-12.95c1.29-2.01,2.77-3.38,4.88-5.35,1.83-1.71,3-5.88,4.27-8.21.96-1.75,2.82-3.97,4.16-5.91l5.74-8.27c4.27-6.15,9.11-19.32,13.19-25.17l1.91-9.49c7.9-5.2,1.25-7.97,3.7-11.44,1.34-1.9,2.25-3.68,2.47-5.64l.71-6.47,3.47.31-1.87-16.32,3.23,1.61-.52-16.16c-.12-3.87,3.41-7.93,1.93-11.99l-2.39-6.6c-.78-2.16-1.22-5.55-1.65-8.09,6.47-4.44-.07-3.9.88-14.39.19-2.07-3.17-5.64-3.75-7.7l-2.05-7.22c.77-1.02,2.31-2.45,2.21-3.4s-1.08-3.07-1.7-3.93c-8.32-11.47.03-11.6-7.27-18.57-2.07-5-5.22-9.85-8.82-14.16l1.31-3.33c.23-.6-1.29-1.76-1.91-2.57-1.48-1.94-2.42-4.7-3.65-7.29-2.21-4.65-7.79-7.94-10.36-12.37-.59-1.4-1.09-4.32-1.74-5.51-5.81-10.48-2.74-5.19-9.07-14.59l-5.37-7.97-7.32-6.61c-3.04-2.74-5.14-7.83-9.76-8.06-.76-.04-3.04-1.68-2.44-2.02l2.65-1.5c-10.32-6.89-4.5-6.1-13.42-10.4-.54-1.2-1.09-3.42-2.17-3.95-1.18-.58-3.81-.86-5.01-.84l-1.93-1.85c-.77-5.41-5.93-6.75-10.06-9.3-3.5-2.16-7.08-4.57-10.35-6.83-3.03-2.09-5.19-3.75-9.64-3.59l-2.62-5.51-7.42-2.91,3.77-4.11,13.39,6.7c5.36,2.68,10.33,5.32,15.24,8.68,26.94,18.38,56.84,48.85,73.29,77.01l6.19,10.6c3.55,6.08,6.54,11.94,9.03,18.05Z"/>
    <path class="cls-16" d="M185.92,407.63c-1.27,2.32-2.44,6.49-4.27,8.21-2.11,1.97-3.58,3.35-4.88,5.35l-8.36,12.95c-2.25,3.49-6.69,5.04-9.15,7.56-4,4.09-5.74,10.67-12.78,10.19l-3.99,6c-2.77,4.18-7.33,5.6-11.43,8.19-2.98,1.88-3.48,7.09-8.84,7.19-3.4.06-6.45,3.65-8.2,6.35l-4.65.48c-2.07.21,1.66,4.5-10.2,5.07-1.14,4.09-3.73,8.2-8.01,8.94-10.45-9.97-19.64-20.91-28.03-32.45,1.41-4.79,4.22-9.05,9.11-11.72l10.37-5.66c2.92-1.59,7.43-1.22,9.82-4.23,1.63-2.06,4.25-4.32,6.37-5.37,5.32,1.91,11.4.84,16-1.14,1.67.89,4.36,2.72,5.76,2.62,3.75-.27,2.46-3.69,8.31-6.32,1.18-.53,3.82,1.69,5.05,2.14,4.47,1.66,7.67-4.04,7.66-8.11,0-3.68,6.26-5.64,8.39-3.21,1.38,1.58,3,3.23,4.44,3.38,7.74.81,1.3-6.58,5.85-8.66,2.18-.99,3.88-.32,5.61,1.98,4.16-.91,6.69-8.63,12.81-13.57l7.23,3.85Z"/>
    <path class="cls-17" d="M5.99,266.61c.02-1.1-.02-2.85.08-3.85l2.53-1.48.06,3.55c.02.96-1.64,1.5-2.67,1.78Z"/>
    <path class="cls-2" d="M6.83,324.7l-.81-6c1.12-.18,2.55,1.47,2.35,2.41-.32,1.52-.89,3.08-1.54,3.59Z"/>
    <path class="cls-17" d="M5.9,272.7l.05-3c.29.03,1.63,1.08,1.28,1.48l-1.33,1.52Z"/>
    <path class="cls-9" d="M596.08,310.82c-1.81,29.23-8.12,59.02-19.81,85.82-2.26.65-4.27,1.99-6.37,4.06-9.94,9.83-11.88-7.94-26.44,4.49-2.44.86-8.02,1.32-9.44,3.32-2.66,3.72-7.87,6.2-11.08,3.4-.76-.67-1.4-3.24-2.39-3.39-1.5-.23-3.35,1.48-3.59,2.75l-.58,2.98c-.19,1.01-9.69-5.06-12.54-2.24-2.57,2.54-3.98,4.27-7.47,4.21-12.2-.22-7.1,8.6-25.03,11.85-15.36,2.78-18.96-2.43-32.77-2.64-3.65,1.12-7.1,1.53-10.54.09-.05-.27-.13-.73-.14-.98-.35-10.13,4.44-2.34.64-14.45-1.56-4.97,3.26-10.08,7.79-12.06,3.52-1.54,4.85-5.85,7.03-7.72,3.5-3.01,5.52-4.32,6.86-9.05.71-2.51,4.73-6.37,7.4-7.73,2.09-1.06,7.52-.8,9.66.1,1.41.59,3.19,3.35,4.56,3.34,3.95-.02,8.91-2.56,8.61-3.74-4.14-16,10.39,3.75,17.02-22,5.07,2.46,14.92,3.55,18.13.94l11.57-9.42c4.26-3.47,7.63-6.31,12.77-8.52,14.73-6.33,8.72,2.25,19.98-4.96,1.91-1.22,7.13-2.32,8.28-4.26l4.6-7.76c1.39-2.34,4.35-6.42,7.42-4.78,8.94,4.8,6.55-.78,15.88-1.67Z"/>
    <path class="cls-5" d="M589.29,227.61c3.66,15.44,6.29,30.99,6.91,47.05-7.82,1.64-10.99-9.31-24.44-1.21-2.97,1.79-8.57,1.68-11.94,3.05-2.59,1.05-6.26,3.39-8.49,3.43-4.88.08-7.82.74-11.34,3.86-2.28,2.02-5.94,3.38-8.7,5.27-3.84,2.63-7.91,9.25-13.12,9.31s-9.74-2.26-13.6,3.05l-9.02,1.42c-1.45,7.3-6.72,8.06-12.36,9.33l-19.45,4.36c-3.23,5.24-9.99,5.35-14.55,8.62l-11.51,8.26c-16.48,11.83-32.06,1.97-34.1,21.26-5.69,8.02-3.63,12.69-7.4,14.19l-2.83.53-2.39-6.47c-.94-2.55-2.43-5.94-3.08-8.36l-2.44-9.12c-.91-3.4-1.08-7.87-1.45-11.3l-2.46.3c-.54.07-1.03-2.3-.94-2.88l1.83-11.65-3.66.69c-.56.1-.6-2.39-.54-3.09l.92-11.87c6.22-3.9,14.27-7.22,21.73-8.15,1.07.07,4.16.77,4.89.93,2.21-2.36,4.58-3.07,7.9-2.29,22.75,5.33,14.11-4.17,42.13-13.66,1.97-.67,4.27-1.65,6.27-1.12,7.41,1.96,14.29-1.99,17.87-7.7,1.83-.83,5.66-1.13,7.86-1.31l7.33-9.69c21.7.16,14.08-3.62,26.25-9.57,7.92-3.88,5.6-7.21,8.52-10.3,1.9-2.01,7.87,3.03,10.17.28,1.46-2.56,3.4-5.94,5.36-6.7l6.3,3.36c4.87-2.81,24.24-12.51,27.55-12.41l10.01.31Z"/>
    <path class="cls-20" d="M578.98,193.38c4.86,11.15,7.54,22.52,10.31,34.23l-10.01-.31c-3.31-.1-22.68,9.6-27.55,12.41l-6.3-3.36c-1.96.76-3.9,4.15-5.36,6.7-2.3,2.75-8.27-2.29-10.17-.28-2.92,3.09-.6,6.42-8.52,10.3-12.16,5.95-4.55,9.73-26.25,9.57l-7.33,9.69c-2.2.18-6.03.48-7.86,1.31-3.58,5.71-10.46,9.66-17.87,7.7-1.99-.53-4.3.46-6.27,1.12-28.02,9.49-19.38,18.99-42.13,13.66-3.32-.78-5.69-.06-7.9,2.29-.73-.15-3.83-.86-4.89-.93-7.46.93-15.52,4.25-21.73,8.15-.97-.38-2-.75-1.95-1.49.06-.86.42-3.12.29-3.92-1.89-12.38,2.43-8.06,4.28-21.42l-3.2.64c-.55.11-.98-2.38-.82-3.01l2.28-9.1c.73-2.9,3.01-7.97,4.1-10.53,6.45-1.44,12.87-2.62,19.88-3.76,6.08-.99,12.65,2.98,17.83,7.43l11.76-.97c2.84-5.37,7.03-6.99,11.86-9.28,4.11-1.95,6.4-.1,9.88.88,3.17.9,8.91-4.2,12.67-1.31,1.06.82,4.32,2.15,5.4,1.44,5.18-3.41,6.78-5.54,9.06-10.54.85-1.86,6.27-2.27,7.71-3.8,2.74-2.91,5.58-6.78,8.09-10.24,5.97.83,10.33-2.56,13.42-7.55,1.98-1.06,6.46.67,8.49.33,7.69-1.29,18.02-2.93,20.08-9.76,2.59-8.59,8.89-6.83,17.79-12.01,6.36-3.71,13.95-8.21,20.96-4.31Z"/>
    <path class="cls-3" d="M558.11,150.46c.91,1.73,2.66,4.44,3.86,6.14-4.22.06-6.94,3.08-9.57,6.58s-2.67,6.25-3.48,10.79c-.65,3.63-5.94,8.34-7.19,12.06-2.04,6.05-6.41,6.11-11.73,7.12-6.71,1.27-12.06,6.68-17.31-.03-5.84.52-7.39,4.35-8.4,9.22s-10.03,9.67-14.54,7.83c-9.94-4.05-7.88-1.93-24.65.15-2.46.3-5.24,5.12-7.47,6.75l-12.21,8.92c-1.34.98-4.95,3.13-6.63,3.26l-13.23,1c-9.46,19.84-20.9,4.66-36.39,11.21l-2.92,5.36-1.4-.03c-2.34-.04,2.66-7.64,3.51-10.24,1.24-3.79,3.17-7.61,4.57-10.26,1.02-1.92.63-6.34,2.25-8.56l7.83-10.71-3.16-.2,5.39-7.88c1.86-2.72,2.19-6.76,4.91-9.12,1.62-1.41,3.53-3.5,3.87-5.13,6.97,3.08,12.75,2.03,19.39-1.81l10.65-6.16c7.95-4.6,26.89-1.47,32.95-9.91,2.57-3.59,6.13-5.74,10.56-5.36,3.82.32,6.37,2.05,8.71,6.09,11.67,1.86,10.96-5.29,17.82-6.69,2.93-.6,8.01.49,9.75-1.22,3.67-3.59,7.54-3.27,12.14-1.94,1-2.99,3.47-6.83,7.34-6.91l14.78-.3Z"/>
    <path class="cls-11" d="M558.11,150.46l-14.78.3c-3.87.08-6.34,3.92-7.34,6.91-4.6-1.33-8.47-1.65-12.14,1.94-1.74,1.71-6.83.62-9.75,1.22-6.86,1.4-6.15,8.55-17.82,6.69-2.34-4.05-4.89-5.77-8.71-6.09-4.44-.38-7.99,1.77-10.56,5.36-6.06,8.45-25,5.31-32.95,9.91l-10.65,6.16c-6.63,3.84-12.41,4.89-19.39,1.81.33-1.56.88-3.5,1.99-4.92l6.49-8.27-.61-1.53c-.13-.32.62-.79,1.2-1.29,8.12-6.94,7.25-12.75,18.57-21.06,2.81-4.52,5.74-6.73,10.61-8.37l-3.96-1.73,7.68-4.97,6.28-5.52c3.04-3.84,6.64-5.9,10.17-8.84s6.49-5.98,11.4-8.42l8.51-4.23c1.71-.85,3.01-5,5.91-4.94,3.86.07,5.45-1.92,6.5-5.27l7.59-3.68c18.09,16.73,34.29,37.02,45.76,58.8Z"/>
    <path class="cls-4" d="M596.2,274.66l.81,21.05-6.01-1.56-13.52.95-15.34,11.56c-6.2,4.67-9.73,7.13-18.43,6.48-2.96-.22-6.38,1.66-10.22-1.51-2.09-.98-5.79,3.4-7.72,4.71l-12.7,8.6c-5.43,3.68-11.27,7.74-17.99,8.77-5.34.81-12.7-1.83-17.07,2.02-4.95,4.36-8.69,8.68-15.98,8.99-5.02.21-8.41,3.79-11.66,7.66-4.2,5.01-15.68-.74-17.84,12.98l-9.27,8.36c-3.86,3.48-4.69,6.63-6.18,11.24-1.21,3.75-3.07,7.41-3.52,11.43l-.58,5.13c-3.01,1.26-9.27-11.32-10.63-14.18l-3.89-8.13c-1.3-2.72-1.73-7.38-2.26-10.36,3.78-1.51,1.71-6.17,7.4-14.19,2.03-19.29,17.62-9.44,34.1-21.26l11.51-8.26c4.56-3.27,11.31-3.38,14.55-8.62l19.45-4.36c5.64-1.26,10.91-2.03,12.36-9.33l9.02-1.42c3.87-5.31,8.34-2.99,13.6-3.05s9.28-6.68,13.12-9.31c2.76-1.89,6.42-3.26,8.7-5.27,3.52-3.11,6.46-3.78,11.34-3.86,2.22-.04,5.9-2.38,8.49-3.43,3.37-1.37,8.98-1.27,11.94-3.05,13.45-8.1,16.62,2.85,24.44,1.21Z"/>
    <path class="cls-28" d="M597.01,295.71l-.93,15.11c-9.33.89-6.95,6.48-15.88,1.67-3.06-1.65-6.03,2.44-7.42,4.78l-4.6,7.76c-1.15,1.94-6.36,3.03-8.28,4.26-11.26,7.21-5.24-1.37-19.98,4.96-5.14,2.21-8.51,5.05-12.77,8.52l-11.57,9.42c-3.21,2.61-13.06,1.52-18.13-.94-6.63,25.75-21.16,6-17.02,22,.31,1.18-4.66,3.72-8.61,3.74-1.37,0-3.15-2.75-4.56-3.34-2.14-.9-7.57-1.16-9.66-.1-2.67,1.36-6.69,5.22-7.4,7.73-1.34,4.72-3.36,6.03-6.86,9.05-2.18,1.88-3.51,6.18-7.03,7.72-4.53,1.98-9.36,7.09-7.79,12.06,3.81,12.11-.99,4.32-.64,14.45-5.43-5.2,1.86.6-6.57-8.34-3.65-3.87-6.1-10-8.36-14.68l.58-5.13c.46-4.02,2.31-7.68,3.52-11.43,1.49-4.61,2.32-7.76,6.18-11.24l9.27-8.36c2.17-13.72,13.64-7.97,17.84-12.98,3.25-3.87,6.64-7.45,11.66-7.66,7.29-.31,11.03-4.63,15.98-8.99,4.37-3.85,11.73-1.21,17.07-2.02,6.72-1.03,12.57-5.09,17.99-8.77l12.7-8.6c1.93-1.31,5.63-5.69,7.72-4.71,3.84,3.17,7.26,1.29,10.22,1.51,8.7.65,12.23-1.81,18.43-6.48l15.34-11.56,13.52-.95,6.01,1.56Z"/>
    <path class="cls-22" d="M561.97,156.6c7.83,11.14,11.67,24.51,17.01,36.79-7.01-3.9-14.59.6-20.96,4.31-8.9,5.18-15.2,3.42-17.79,12.01-2.06,6.83-12.39,8.48-20.08,9.76-2.03.34-6.51-1.4-8.49-.33-3.09,4.99-7.45,8.37-13.42,7.55-2.51,3.46-5.35,7.32-8.09,10.24-1.44,1.53-6.86,1.93-7.71,3.8-2.28,5.01-3.88,7.14-9.06,10.54-1.08.71-4.33-.63-5.4-1.44-3.76-2.89-9.49,2.21-12.67,1.31-3.47-.99-5.76-2.83-9.88-.88-4.83,2.29-9.02,3.91-11.86,9.28l-11.76.97c-5.18-4.46-11.75-8.42-17.83-7.43-7.01,1.14-13.43,2.31-19.88,3.76.35-.82-.21-2.69-.27-3.63l2.38-6.38,2.92-5.36c15.49-6.55,26.94,8.63,36.39-11.21l13.23-1c1.69-.13,5.3-2.28,6.63-3.26l12.21-8.92c2.23-1.63,5.01-6.45,7.47-6.75,16.77-2.07,14.71-4.2,24.65-.15,4.51,1.84,13.48-2.74,14.54-7.83s2.55-8.7,8.4-9.22c5.25,6.71,10.6,1.29,17.31.03,5.32-1,9.69-1.06,11.73-7.12,1.26-3.72,6.54-8.44,7.19-12.06.82-4.53.92-7.36,3.48-10.79s5.34-6.52,9.57-6.58Z"/>
    <path class="cls-21" d="M509.14,87.45c.77,1.15,3.08,2.59,3.21,4.2l-7.59,3.68c-1.05,3.35-2.64,5.34-6.5,5.27-2.91-.05-4.21,4.1-5.91,4.94l-8.51,4.23c-4.91,2.44-7.69,5.34-11.4,8.42s-7.13,5-10.17,8.84l-6.28,5.52-7.68,4.97,3.96,1.73c-4.87,1.63-7.81,3.85-10.61,8.37-11.32,8.31-10.46,14.12-18.57,21.06-.58.5-1.33.96-1.2,1.29l.61,1.53-6.49,8.27c-1.11,1.42-1.66,3.36-1.99,4.92s-2.25,3.72-3.87,5.13c-2.72,2.37-3.05,6.41-4.91,9.12l-5.39,7.88,3.16.2-7.83,10.71c-1.62,2.21-1.23,6.63-2.25,8.56-1.4,2.65-3.33,6.47-4.57,10.26-.85,2.6-5.86,10.2-3.51,10.24l1.4.03-2.38,6.38c.06.94.62,2.81.27,3.63-1.09,2.55-3.37,7.63-4.1,10.53l-2.28,9.1c-.16.63.27,3.12.82,3.01l3.2-.64c-1.85,13.36-6.17,9.04-4.28,21.42.12.8-.24,3.05-.29,3.92-.05.74.98,1.11,1.95,1.49l-.92,11.87c-.05.7-.01,3.19.54,3.09l3.66-.69-1.83,11.65c-.09.57.4,2.94.94,2.88l2.46-.3c.37,3.44.54,7.9,1.45,11.3l2.44,9.12c.65,2.42,2.14,5.81,3.08,8.36l2.39,6.47,2.83-.53c.52,2.98.96,7.64,2.26,10.36l3.89,8.13c1.37,2.86,7.62,15.44,10.63,14.18,2.27,4.68,4.72,10.81,8.36,14.68,8.42,8.94,1.14,3.14,6.57,8.34,0,.26.09.72.14.98,5.62,10.44,10.71,12.76,15.11,17.05,2.33,2.27,3.47,5.26,6.01,6.64,1.65.9,4.21,2.47,5.5,3.49,3.23,3.6,6.22,6.37,9.39,9.06,1.58,1.34,3.27,2.23,6.03,3.24l5.12,6.21c15.51,5.78,5.21,3.55,15.9,9.72,3.76,2.17,7.28,3.95,11.64,4.63,1.38,3.37,4.25,6.07,7.47,8.16-.43,1.29-1.78,2.55-3.15,2.95-3.7-2.11-7.81-3.72-11.89-4.83l-7.6-4.86-11.57-7.43-9.68-6.1c-5.2-5.87-12.09-10.33-17.97-16l-16.84-16.24c-2.23-2.15-5.51-5.05-7.34-7.46-7.11-9.35-16.7-22.76-22.21-32.12-4.56-7.75-8.56-15.72-12.57-24.23l-4.79-10.15c-3.32-7.03-5.27-14.13-8.49-20.75-1.05-2.16-.47-7.23-.85-9.7-2.82-4.72-3.13-8.61-3.79-13.95-.39-3.09-2.31-6.56-1.34-10.07.55-1.99.8-5.37,0-6.84-2.35-4.25.33-8.43.19-12.21-.18-4.7-2.37-9.24.97-14.03,1.12-1.6.02-5.98.25-7.88l.74-6.22c.09-3.65.94-6.63,1.8-10.11s.58-6.59,3.27-9.69c1.78-2.05,1.35-5.11,1.2-8.13-.18-3.67,4.77-7.37,5.57-10.63,1.12-4.57,2.06-8.03,4.19-12.01l8.06-15.03c2.47-4.6,4.49-8.79,6.92-13.64,1.11-2.22,12.91-19.68,15.06-22.37l8.63-10.76c14.92-18.61,32.66-34.57,51.79-48.62l9.5-6.97,20.88-10.19Z"/>
    <path class="cls-28" d="M576.27,396.64c-6.52,14.94-12.3,31.02-22.98,43.46-7.09-1.78-5.14-6.41-16.44-3.98-2.73.59-5.98.72-8.89,1.17l-11.98,1.88c-6.21.98-11.79,1.28-17.73,3.63-3.48,1.37-8.55,1.72-11.58,3.42-4.66,2.61-7.71,2.15-12.83,2.15-4.23,0-8.92,2.02-13.69.94-3.79-.86-7.57-.68-10.99-.09-2.54-1.38-3.69-4.38-6.01-6.64-4.41-4.29-9.5-6.62-15.11-17.05,3.44,1.43,6.9,1.02,10.54-.09,13.81.21,17.41,5.42,32.77,2.64,17.93-3.24,12.83-12.07,25.03-11.85,3.49.06,4.91-1.67,7.47-4.21,2.85-2.82,12.34,3.24,12.54,2.24l.58-2.98c.25-1.28,2.09-2.98,3.59-2.75.99.15,1.63,2.72,2.39,3.39,3.21,2.81,8.42.32,11.08-3.4,1.43-2,7-2.46,9.44-3.32,14.57-12.43,16.5,5.34,26.44-4.49,2.1-2.07,4.1-3.41,6.37-4.06Z"/>
    <path class="cls-5" d="M546.94,450.87c-10.49,15.4-22.73,30.71-36.74,42.87-3.22-2.09-6.09-4.79-7.47-8.16-4.36-.68-7.88-2.46-11.64-4.63-10.69-6.17-.39-3.93-15.9-9.72l-5.12-6.21c-2.76-1.01-4.45-1.9-6.03-3.24l1.07-1.82c.83-1.42,16.79,5.6,23.37-.22,14.54-1.96,19.71,6.73,29.57-2.21,7.52-6.82,4.2-6.69,11.59-9.41,13.39-4.93,10.21,3.51,17.3,2.75Z"/>
    <path class="cls-4" d="M553.29,440.09c-1.03,4.02-3.98,7.3-6.35,10.78-7.08.76-3.9-7.68-17.3-2.75-7.38,2.72-4.06,2.59-11.59,9.41-9.86,8.94-15.03.25-29.57,2.21-6.58,5.82-22.54-1.2-23.37.22l-1.07,1.82c-3.18-2.69-6.17-5.46-9.39-9.06-1.29-1.03-3.85-2.6-5.5-3.49,3.42-.59,7.2-.77,10.99.09,4.77,1.08,9.46-.93,13.69-.94,5.12,0,8.17.46,12.83-2.15,3.03-1.7,8.1-2.04,11.58-3.42,5.94-2.35,11.52-2.65,17.73-3.63l11.98-1.88c2.91-.46,6.15-.59,8.89-1.17,11.3-2.43,9.35,2.2,16.44,3.98Z"/>
    <path class="cls-24" d="M507.05,496.69c-.38,2.79-2.51,5.14-4.77,7.13-3.52.31-2.64-6.81-8.07-9.23l.94-2.74c4.08,1.11,8.2,2.72,11.89,4.83Z"/>
    <path class="cls-21" d="M127.04,60.46c5.97,3.41,13.14,5.19,19.79,6.29,2.55,2.83,5.08,4.54,8.49,5.92l13.19,5.35-2-.15c-.33-.02-1.48.2-1.29.48.28.41,1.21,1.51,1.68,1.58l5.05.73c.72,1.66,2.26,2.88,4.19,4.1,9.87,6.2,2.93,3.82,14.9,11.69,12.81,8.43,5.47,8.39,13.56,10.08.9,4.48,4.58,7.09,9.17,7.52.13,2.78,2.48,5.02,5.31,6.64l2.22,5.65,8.95,6.21c1.64,2.96,4.14,5.32,6.38,8.42l3.39,4.69c1.26,3.12,3.11,5.92,5.4,8.66l8.23,9.88c10.66,12.81,6.12,10.37,14.51,20.94,6.59,8.3,5.82,15.41,11.95,20.4-.8,4.34,2.31,7.91,3.98,11.79l4.52,10.49,3.71,8.46c.94,2.14-.97,7.43.34,9.38,3.26,4.85,3.99,8.47,3.15,14.33-.44,3.09,2.69,7.53,3.04,10.53l1.7,14.38c.92-4.28,1.06-7.37,1.29-11.6l4.07-6.58c-3.63-23.65,5.92-14.15,3.77-30.34l4.44-10.2c2.72-6.24,6.06-17.28,10.47-24.78,4.01-6.82,7.33-13.84,12.16-20.22,2.01-2.65,3.34-5.18,4.97-8.12s4.63-5.41,5.41-8.43c3.17-1.78,4.94-4.7,7.07-8.1,1.8-2.87,5.7-5.69,6.73-8.93s2.87-3.9,4.91-6.2c3.23-3.66,5.76-9.71,11.51-12.39,2.96-1.38,3.68-4.25,5.55-6.72,8.96-11.83,5.37-5.14,14.66-14.32,1.77-1.75,4.75-3.07,6.28-5.62,1.31-2.19,3.18-3.73,5.12-4.76,3.17-1.69,10.86-5.68,10.81-10.28l6.46-1.61c2.1-3.83,6.1-4.15,9.5-6.22,1.95-1.19,4.42-3.61,6.53-4.68l9.33-4.71c6.38-3.22-7.72-.42,13.72-6.02,3.87-1.01,7.71-1.26,10.64-3.4,2.01,1.47,5.18,2.05,5.03,5.04-21.77,4.01-50.56,22.64-67.66,37.23l-5.94,5.06-8.42,7.68c-8.71,7.94-16.89,16.14-23.79,25.18l-15.58,20.4c-15.59,20.42-28,39.73-36.94,64.09l-4.88,13.32c-1.44,3.92-2.46,7.54-3.24,11.75l-1.89,10.21c-2.29,12.39-4.5,26.75-3.87,39,.23,4.53,0,9.07.46,13.09.22,1.95.75,4.43,1.2,6.87,2.45,13.24-1.29,13.82,3.75,16.39.23,2.72-.24,7.63.51,10.19l3.26,11.11c.79,2.68,1.69,5.98,2.26,8.39,7.17,11.56,2.99,11.11,10.27,24.81,2.62,4.93,5.18,10.02,8.17,14.51l4.89,7.34,13.56,19.36,7.36,7.86c5.2,5.55,23.05,29.71,34.41,34.54,2.58,3.3,5.91,6.28,9.72,9.08l7.05,5.17,15.03,10.92c8.05,5.85,27.37,15.58,37.25,17.88l11.09,2.59-5.95,4.16c-7.75-3.01-9.91-.06-21.06-5.06l-.64-2.59s-20.65-7.41-20.19-8.53c-.75-.93-2.01-1.72-3.17-2.02-1.99-1.72-4.77-3.7-6.93-5.03-1.48-3.18-5.71-3.52-8.28-5.6l-8.37-6.74c-4.43-3.57-8.74-7.35-13.57-9.61-.48-2.22-2.99-3.56-4.74-5.3-4.21-4.2-8.07-8.04-12.79-11.84l-1.9-3.56c-1.98-1.46-7.05-4.04-7.86-6.47-1.73-5.21-5.33-7.67-9.19-11.22-3.26-3-4.14-9.57-9.7-11.17l-2.7-5.15c-.16-5.15-6.25-8.24-8.46-12.38l-4.51-8.46-5.01-8.6c-1.17-2-2.65-5.58-3.53-7.84-.47-3.72-1.58-5.9-3.51-8.61-.39-1.61-1.08-4.42-1.87-6.09l-6.37-13.34.38-7.56c-6.85-9.3.51-13.94-6.02-18.4-.11-6.44-.48-12.49-1.78-19.67l-3.57,11.9,1.33,7.81c-3.96-.36-5.6,23.68-6.12,25.04-2.81,7.35-6.69,14.12-9.88,21.36-.95,2.15-1.15,6.2-2.08,8.01l-8.29,16.14-4.21,8.15c-2.38,4.6-11.27,11.31-9.48,16.39-5.03,2.47-8.38,7.01-10.67,12.34-13.59,8.11-6.53,10.23-9.22,12.01l-9.95,6.59-.97,3.12-11.62,10.24-6.76,6.05-12.59,10.41c-3.15,2.6-6.77,4.36-9.06,7.97-2.5.38-5.34,1.72-7.57,3.61l-10.02,8.48c-5.77,2.06-11.22,3.98-16.8,6.37l-2.54,1.09c-.59.25-.53,1.41-.72,2.42l-10.52,3.59c-3.54,1.21-8.41-.87-10.88,2.34-1.89-1.48-4.71-2.21-5.27-4.7,19.56-5.86,16.44-2.92,35-13.19,4.11-2.27,9.6-3.21,11.44-7.73,2.26-.57,4.31-1.86,6.5-3.46l21.36-15.62,10.4-8.55c8.66-7.13,16.53-14.92,23.59-23.63l9.79-12.09c2.31-2.86,4.42-5.59,6.6-8.61,3.76-5.18,8.4-9.27,9.98-16.01.53-2.25,4.19-3.99,5.04-5.65l8.56-16.5c1.91-3.69,2.73-6.6,3.14-10.06.51-4.31,4.42-8.22,5.91-12.22l3.68-9.91c3.03-8.15,4.88-17.91,5.59-26.46.36-4.32-.17-7.36,1.6-11.25,2.49-5.47.01-12.34.96-17.9.52-3.04,1.22-5.6.69-8.57-1.84-10.24-.48-12.57-3.72-29.2l-2.81-14.46c-.59-3.03-1.72-6-3.21-8.17-.34-5.56-2.64-10.33-4.84-15.68-3.07-7.47-5.25-15.16-10-21.36-.93-4.4-3.55-8.34-6.2-12.49l-10.56-16.56-10.57-14.44c-15.53-21.21-32.36-40.51-52.79-57.2-5.22-4.26-10.01-8.84-15.93-11.14-5.74-5-11.98-9.76-19.16-12.19-1.48-1.91-4.36-2.94-6.57-3.73-7.2-6.02-18.26-7.46-26.52-10.35.46-3.21,4.23-3.41,6.27-4.94Z"/>
    <path class="cls-13" d="M374.03,13.83l.77,4.98c4.13.29,5.23,1.78,6.73,6.32,2.64-1.79,5.4-4.16,6.82-6.65,5.05,1.23,10.15,2.07,15.71,4.18,25.76,9.79,49.96,21.98,71.89,38-2.93,2.14-6.77,2.39-10.64,3.4-21.44,5.6-7.34,2.8-13.72,6.02l-9.33,4.71c-2.11,1.07-4.58,3.49-6.53,4.68-3.4,2.07-7.41,2.4-9.5,6.22l-6.46,1.61c.05,4.6-7.64,8.6-10.81,10.28-.24-.93-.41-2.08-1.09-2.37s-2.77-.27-3.81-.16c-14.74,1.54,5.52-2.58-15.8.91-15.5,2.54-18.51-2.93-21.75,2.21-1.73,2.75-5.93,6.49-8.87,5.14-11.86-5.46-11.98,1.93-19.61-3.86l6.49-5.01-4.93-1.72,7.55-13.25-12.52,4.03,8.89-9.1,3.63-8.86c-5.35.78-11.83,7.66-16.9,5.98l8.29-12.81c-8.51,1.27-14.59,2.86-21.53,4.9l-7.32-.45,9.42-10.76c-2.74-.78-5.19-1.31-7.05-.99l-.06-5.69c2.81-1.97,6.03-1.26,8.56.51l6.39,4.49c4.41,3.1,7.55-1.53,10.99-3.04s6.43-2.5,8.86-5.21c7.68-8.55,12.41-3.82,14.54-9.17.65-1.62.48-4.12.07-5.76-1.89-7.59,7.35-3.12,3.7-15.02,2.77.31,6.04.81,8.91,1.29ZM377.72,25.77c-.73.11-3.05.98-3.37,1.64-.9,1.87-.95,6.75.06,8.26,1.85.68,5.86-.61,6.14-2.01.4-1.97-1.87-8.04-2.84-7.89Z"/>
    <path class="cls-25" d="M354.08,9.71c-2.35,1.44-5.63,1.76-9,1.86-7.82.23-14.89,3.27-21.86,6.3-5.18,2.25-10.83,3.61-15.96,6.18-3.85,1.93-8.55,4.32-12.67,4.43-3.95-4.97-7.93-4.62-12.98-2.07-5.89,2.97-13.23,7.51-12.47,15.1l-1.88,1.21-8.33,2.14.13-1.66c.04-.53-1.49-.74-1.97-.5l-4.28,2.18c-2.11,1.08-6.42,2.15-8.6,2.75l-.22-2.02-.15-1.38c-.4-3.74-21.46,7.08-20.36,2.85-7.77,6.45-16.04,13.59-25.73,18.09-2.66,1.24-4.74,2.51-6.65,4.51-6.71,3.32-13.17,6.85-19.16,10.97l-5.05-.73c-.47-.07-1.4-1.17-1.68-1.58-.19-.27.96-.5,1.29-.48l2,.15-13.19-5.35c-3.41-1.38-5.93-3.09-8.49-5.92-6.65-1.1-13.82-2.87-19.79-6.29C183.67,18.16,257.18-.18,327.62,5.62c1.88,2.27,3.32.96,5.49,1.03,7.28.24,14.3,1.71,20.96,3.06Z"/>
    <path class="cls-17" d="M365.11,12.54c3.65,11.91-5.59,7.43-3.7,15.02.41,1.64.58,4.14-.07,5.76-2.13,5.35-6.87.63-14.54,9.17-2.43,2.7-5.55,3.76-8.86,5.21s-6.58,6.14-10.99,3.04l-6.39-4.49c-2.52-1.77-5.75-2.47-8.56-.51l.06,5.69-13.14,2.3c-3.53.62-7.26.6-10.99.07,2.26-2.43,4.81-4.95,6.37-7.2.97-1.41-3.51-4.77-5.38-4.67l-12.78.69c-.78.04-2.22,0-3.09-.02-.09-.63-.75-2.07-1.37-1.93-.68.15-2,.49-2.54.84-.76-7.59,6.58-12.13,12.47-15.1,5.05-2.55,9.03-2.9,12.98,2.07,4.12-.12,8.82-2.5,12.67-4.43,5.13-2.57,10.78-3.93,15.96-6.18,6.97-3.03,14.04-6.07,21.86-6.3,3.38-.1,6.66-.42,9-1.86,3.8.77,7.51,1.39,11.03,2.83Z"/>
    <path class="cls-17" d="M388.35,18.48c-1.42,2.49-4.18,4.86-6.82,6.65-1.5-4.54-2.6-6.02-6.73-6.32l-.77-4.98c4.87.83,9.74,3.53,14.33,4.65Z"/>
    <path class="cls-9" d="M390.85,478.7l-2.7,5.27-9.25,4.42c-4.21,2.01-8.92,3.38-12.43,6.86-4.79,4.75-9.76,8.86-16.6,10.21-3.98.79-8.84,2.83-12.71,2.97-6.43.23-10.9,1.58-16.92,3.3-5.64,1.61-12.18,2.62-18.05,3.82-15.42,3.17-1.93,7.54-25.78,10.44-5.12.62-6.73,4.01-9.86,7.35-4.99,5.33-16.67,2.75-21.56,7.26-7.25,6.69-15.27,12.14-25,14.14l-11.36,2.33-13.1-.47c-.41-.01-1.73,2.05-1.38,1.78-22.68-8.9-45.66-18.73-65.06-33.92,2.47-3.21,7.34-1.13,10.88-2.34l10.52-3.59c.19-1.01.13-2.16.72-2.42l2.54-1.09c5.58-2.39,11.03-4.31,16.8-6.37l10.02-8.48c2.23-1.89,5.07-3.23,7.57-3.61,3.19,1.76,1.52-2.12,9.68-1.17,6.04-3.46,12.51-6.41,20.1-7.27,2.45-.28,4.79-3.84,6.88-5.78,1.33-1.23,5.13-1.98,7.01-2.8l16.94-7.4,8.86-7.63c6.61-5.68,14.53-8.05,23.17-8.01,3.62-2.27,7.95-4.94,11.6-7.38l12.4-8.33,18.76-9.17,12.95-6.33,5.48-1.33,2.7,5.15c5.56,1.6,6.43,8.17,9.7,11.17,3.86,3.55,7.46,6.01,9.19,11.22.81,2.43,5.88,5.01,7.86,6.47l1.9,3.56c4.72,3.8,8.57,7.64,12.79,11.84,1.75,1.75,4.26,3.09,4.74,5.3Z"/>
    <path class="cls-5" d="M428.01,505.68c.13.48.3,1.74.83,1.8l2.34.23c-.46,1.12,20.19,8.53,20.19,8.53l.64,2.59c11.15,5,13.3,2.05,21.06,5.06-65.26,45.62-142.96,63.63-221.68,50.12,8.94-4.49,20.61-1.49,26.74-11.41l7.51-5.39c8-5.75,18.2-4.8,26.43-11.76,4.48.77,8.73.58,12.09-2.54,8.36-7.76,13.4-2.5,23.39-12.85,11.95-3.78,17.85-11.98,32.97-4.33,1.36.69,4.53-.69,5.82-1.58,3.92-2.71,7.82-4.23,12-6.31l11.45-5.71,9.81-4.89,1.51-6.58c2.16,1.33,4.94,3.31,6.93,5.03Z"/>
    <path class="cls-4" d="M421.08,500.65l-1.51,6.58-9.81,4.89-11.45,5.71c-4.17,2.08-8.08,3.6-12,6.31-1.29.89-4.46,2.27-5.82,1.58-15.12-7.65-21.02.55-32.97,4.33-9.98,10.35-15.03,5.09-23.39,12.85-3.35,3.11-7.61,3.3-12.09,2.54-8.23,6.96-18.42,6.01-26.43,11.76l-7.51,5.39c-6.13,9.93-17.8,6.93-26.74,11.41-19.75-3.39-38.6-8.32-57.24-15.64-.35.28.97-1.79,1.38-1.78l13.1.47,11.36-2.33c9.74-1.99,17.75-7.45,25-14.14,4.89-4.51,16.57-1.93,21.56-7.26,3.13-3.34,4.74-6.73,9.86-7.35,23.85-2.9,10.36-7.27,25.78-10.44,5.87-1.21,12.41-2.21,18.05-3.82,6.02-1.72,10.49-3.07,16.92-3.3,3.87-.14,8.72-2.18,12.71-2.97,6.84-1.35,11.81-5.46,16.6-10.21,3.51-3.48,8.22-4.85,12.43-6.86l9.25-4.42,2.7-5.27c4.84,2.26,9.15,6.05,13.57,9.61l8.37,6.74c2.57,2.07,6.8,2.41,8.28,5.6Z"/>
    <path class="cls-10" d="M177.09,480.67c.57,2.19.73,6.47-1.1,7.34-2.76,1.3-5.39,2.32-6.16,3.91-.92,1.92-.46,5.13.42,6.91-1.83,4.52-7.33,5.45-11.44,7.73-18.55,10.26-15.44,7.33-35,13.19-3.65-.77-6.95-3.26-9.65-5.97,1.19-1.74,5.49-4.14,8.01-3.92,4.01.35,5.79-1.13,9.94-3.29,2.89-1.5,12.95-2.52,14.09-7.83,1.7-.78,7.16-.35,8.39-2.16l3.94-5.83c4.22,1.74,7.69-.2,10.23-3.48l7.52-9.72.81,3.1Z"/>
    <path class="cls-14" d="M380.91,142.69c-1.43,2.04-2.45,4.6-3.09,7.1-4.42,2.28-5.24,7.94-7.28,12.2-2.38.7-4.42,2.11-5.72,4.55-1.58,2.95-5.66,5.67-6.98,8.55l-6.01,13.17c-7.25,15.87-6.75,5.54-13.06,19.43-1.14,2.51-2.3,6.14-1.39,8.03l1.57,3.22c.58,1.19-4.42,2.28-4.07,4.06l.58,3.03-4.7,10.58c-.73,1.64-3.83,2.75-4.46,5.62l-2.38,10.96c-.3,1.36-4.73,25.72-4.74,25.61l.13,10.77c.06,4.89-1.74,7.86,3.09,10.41.32,4.37-.5,10.29-1.29,14.89l-5.48,2.23c-.75.3-3.18.76-3.48,0l-1.05-2.62c-.24-.6-1.37-1.54-1.86-1.76-.46-4.01-.23-8.56-.46-13.09-.63-12.25,1.58-26.61,3.87-39l1.89-10.21c.78-4.21,1.8-7.83,3.24-11.75l4.88-13.32c8.93-24.36,21.35-43.67,36.94-64.09l15.58-20.4c2.25-.53,5.31-.56,5.74,1.83Z"/>
    <path class="cls-23" d="M383.99,142.87l-.44,6.24c-.06.81-2.23,2.54-2.96,2.15l-2.78-1.47c.65-2.51,1.67-5.07,3.09-7.1l3.08.19Z"/>
    <path class="cls-8" d="M215.14,446.95l-1.25-.44.22-1.35c.05-.33.83-.33.86,0l.18,1.79Z"/>
    <path class="cls-8" d="M275.22,378.67c-.41,3.46-1.23,6.37-3.14,10.06l-8.56,16.5c-.86,1.65-4.52,3.4-5.04,5.65-1.58,6.74-6.22,10.82-9.98,16.01-2.19,3.01-4.29,5.75-6.6,8.61l-9.79,12.09c-7.06,8.72-14.93,16.51-23.59,23.63l-10.4,8.55-21.36,15.62c-2.19,1.6-4.24,2.89-6.5,3.46-.88-1.78-1.34-4.99-.42-6.91.77-1.6,3.4-2.61,6.16-3.91,1.83-.87,1.67-5.15,1.1-7.34,3.02-2.11,5.93-5.35,9.07-7.83,2.49-1.96,5.66-2.7,6.53-6.37.24-1.02,1.47-3.06,2.33-3.37s2.91.16,3.98.18c4.24-2.42,7.7-8.2,9.05-13.08l1.86.87c.92.43,1.6-4.2,3.98-4.57.42.34,1.77,1.1,1.25.44,6.76-.97,9.02-15.67,9.9-15.61l2.24.16c10.96-8.3,7.21-11.48,13.11-21.06l1.51,4.79c8.95-9.18,10.14-18,12.71-28.58l.79,7.02,6.1-6.31.78-15.62c2.41-.72,3.05-2.83,4.09-4.69s3.66-5.07,3.87-7.4c1.59.09,2.93,2.95,2.92,4.69-.01,1.29-1.43,3.24-2.8,5.11l2.78,8.04c.17.48,1.96,1.25,2.07,1.18ZM231.09,430.17c0-.28-.23-.51-.51-.51s-.51.23-.51.51.23.51.51.51.51-.23.51-.51Z"/>
    <path class="cls-10" d="M283.91,240.54c1.49,2.17,2.62,5.14,3.21,8.17l2.81,14.46c3.24,16.63,1.88,18.95,3.72,29.2.53,2.97-.17,5.53-.69,8.57-.95,5.56,1.52,12.43-.96,17.9-1.77,3.89-1.24,6.93-1.6,11.25-.71,8.55-2.57,18.31-5.59,26.46l-3.68,9.91c-1.48,4-5.39,7.9-5.91,12.22-.11.06-1.9-.7-2.07-1.18l-2.78-8.04c1.37-1.87,2.79-3.82,2.8-5.11.02-1.75-1.33-4.6-2.92-4.69.31-3.4.06-7.4.03-10.85l2.68,4.3,3.23-9.03c-1.53-5.43-2.05-11.3,2.12-15.12,7.53-6.9-4.54-15.86,3.61-19.15l-1.44-9.3c1.42-.9,3.39-1.54,3.76-2.71s-.11-4.58-.56-5.75l-1.5-3.85c-.32-.82,2.7-2.06,3.16-2.92-.62-4.04-2.46-10.28-3.99-14.66-2.68-7.7,1.97-12.15,0-13.79l-3.01-2.48c-.21-2.2.29-6.68-.44-8.64,1.48-2.16,3.65-4.16,5.99-5.16Z"/>
    <path class="cls-19" d="M230.01,366.82c0-10.16,4.7-9.34,6.52-15.78.27-.97,1.01-3.61,1.66-3.16l2.17,1.53,1.68-13.06c.43-3.38-1.38-8.97-1.14-12.32,3.85-4.21,3.83-18.57,3.27-20.76l-2.1-8.22c3.99-.85,3.83-1.02,5.17-2.09l4.74-3.79c3.41.51,4.98,2.36,5.43,5.14.38,2.31-1.7,5.22-3.36,6.33-3.3,2.21,2.46,7.42-5.98,11.09-1.21,4.47,7.64,9.13,5.76,12.17l-2.12,3.43c-.88,5.28-2.91,10.48-4.74,15.55-1.25,3.46-.71,7.14-4.51,9.3l-.93,9.95c-2.32,2.19-3.16,3.43-4.8,6.75l-3.3-4-1.22,8.26-2.2-6.31Z"/>
    <path class="cls-24" d="M269.07,203.51c4.76,6.2,6.93,13.88,10,21.36,2.2,5.34,4.49,10.12,4.84,15.68-2.34.99-4.51,3-5.99,5.16l-2.16-5.76-8.6-22.14c-.95-2.45-.33-6.04-2-8.1.53-2.47,1.7-5.42,3.92-6.18Z"/>
    <path class="cls-24" d="M266.37,367.05c-1.03,1.86-1.68,3.97-4.09,4.69l-3.08-3.26,4.7-9.6c2.11,3.7,2.32,5.36,2.47,8.18Z"/>
    <path class="cls-14" d="M153.86,79.49c-1.06,1.57-3.39,2.58-4.62,1.44-1.44-1.32-2.01-3.44-1.95-5.17,2.22.79,5.09,1.82,6.57,3.73Z"/>
    <path class="cls-27" d="M144.94,211.76l-4.73,16.06-2.18-4.55-10.9,18.84-2.95-5.35c-1.67,3.26-3.51,8.44-4.19,11.21-.32.29-.89-3.35-1.34-4.28-1.63-3.41-7.17-4.8-10.92-5.45s-6.06-3.13-9.01-5.21l-8.17-5.75c2.31,1.63-19.94-16.22-17.43-15.57l6.29-9.87-8.09,1.58c3.65-7.69,7.6-13.44,12.06-20.49l-5.71,1.24c.97-4.75,24.25-29.52,23.12-29.97l-2.69-1.06,2.8-2.53c3.92,8.31-2.23.37,4.29,15.83,1.88,4.46,3.55,8.59,6.72,12.39,10.11,12.11,1.62,6.56,15,16.68l12.75,9.64,5.28,6.61Z"/>
    <path class="cls-3" d="M80.45,321.7c.1.52-2.02.66-2.26.21l-1.04-1.93c-.3-.55,1.13-1.31,1.59-1.74s1.5,2.34,1.72,3.45Z"/>
    <path class="cls-7" d="M176.9,187.04l-3.75,4.55,1.66-4.13.79-1.92c.16-.39,1.54,1.23,1.31,1.5Z"/>
    <path class="cls-7" d="M183.16,177.58c-1.5,2.31-3.7,4.66-5.58,6.19l.18-3.18c-10.75,8.06-6.82,18.63-16.63,25.02.91-4.06,1.54-7.59,2.64-10.7l3.47-9.8c-4.81,2.41-20.31-3.36-23.11-6.54-10.51-11.97-7.33-31.71-14.84-50.2-.7-1.72,1.11-5.25,1.97-6.72,1.2-.02,3.83.26,5.01.84,1.08.53,1.63,2.75,2.17,3.95,8.92,4.3,3.1,3.51,13.42,10.4l-2.65,1.5c-.6.34,1.68,1.98,2.44,2.02,4.62.23,6.72,5.32,9.76,8.06l7.32,6.61,5.37,7.97c6.33,9.4,3.26,4.11,9.07,14.59Z"/>
    <path class="cls-18" d="M131.25,121.65c-.86,1.47-2.67,5-1.97,6.72,7.51,18.49,4.33,38.23,14.84,50.2,2.8,3.19,18.3,8.96,23.11,6.54l-3.47,9.8c-9.07,2.83-7.37,11.27-11.32,15.05l1.31-10.21c-2.93,3.62-7.57,7.79-8.81,12l-5.28-6.61-12.75-9.64c-13.38-10.12-4.89-4.57-15-16.68-3.17-3.8-4.84-7.93-6.72-12.39-6.52-15.46-.36-7.52-4.29-15.83-.03-3.43,16.33-16.48,15.78-17.46l-1.69-2.96c4.06-3.87,9.34-7.67,14.32-10.4l1.93,1.85Z"/>
    <path class="cls-11" d="M408.96,97.59c-1.93,1.03-3.81,2.57-5.12,4.76-1.53,2.54-4.5,3.86-6.28,5.62-9.28,9.18-5.7,2.49-14.66,14.32-1.87,2.47-2.59,5.34-5.55,6.72-5.75,2.69-8.28,8.73-11.51,12.39-2.04,2.31-3.85,2.88-4.91,6.2s-4.93,6.05-6.73,8.93c-2.13,3.4-3.9,6.32-7.07,8.1-.89-3.03-3.28-6.59-6.84-7.15-4.81,6.31-10.94,9.62-18.36,11.03.41,6.86-1.91,18.81-9.23,20.31-6.31,1.29-12.58.31-18.83,2.69-4.34,1.65-11.41,1.07-12.6,7.58l-1.18,6.46c-6.13-4.99-5.36-12.1-11.95-20.4-8.38-10.56-3.84-8.13-14.51-20.94l-8.23-9.88c-2.29-2.75-4.13-5.54-5.4-8.66l3.89-2.2c.77-.43,2.37,1.36,3.22,2.2,5.31-5.69,10.15-11.95,17.99-14.64l-1.7,9.4,14.06-13.36c5.18-4.92,10.57-8.41,18.21-11.33l-.17,6.19,17.67-13.3,6.22-1.1-3.91,7.35,9.08-6.8c4.46-3.34,8.74-6.48,13.43-8.61,7.63,5.8,7.76-1.6,19.61,3.86,2.93,1.35,7.14-2.39,8.87-5.14,3.23-5.14,6.25.33,21.75-2.21,21.33-3.49,1.06.63,15.8-.91,1.04-.11,3.13-.14,3.81.16s.84,1.44,1.09,2.37ZM293.21,124.7c0-.35-.28-.63-.63-.63s-.63.28-.63.63.28.63.63.63.63-.28.63-.63ZM262.94,141.7c0-.48-.39-.86-.86-.86s-.86.39-.86.86.39.86.86.86.86-.39.86-.86ZM337.64,155.92c.41-.23,1.27-2.5.86-2.75s-1.42-.77-1.85-.56l-2.13,1.03c-.28.18-1.05,3.16-.17,3.14.66-.01,2.68-.51,3.29-.86Z"/>
    <path class="cls-26" d="M243.98,45.61l-1.02,1.58c-.19.3.9.54,1.24.44,2.17-.6,6.49-1.67,8.6-2.75,0,.04,1.49,1.56,1.87,2.15,12.17,18.69,11.49,5.01,13.51,32.57.41,5.58-.83,10.02-3.92,14.32-8.27,11.49-18.12,15.13-32.11,15.83-3.54.18-17.72,1.18-18.39,4.29-4.59-.43-8.27-3.04-9.17-7.52-8.09-1.68-.75-1.65-13.56-10.08-11.97-7.87-5.03-5.48-14.9-11.69-1.93-1.22-3.47-2.43-4.19-4.1,5.99-4.12,12.45-7.65,19.16-10.97,1.91-2,3.98-3.27,6.65-4.51,9.68-4.5,17.95-11.65,25.73-18.09-1.09,4.23,19.97-6.59,20.36-2.85l.15,1.38ZM242.08,48.2c0-.28-.22-.5-.5-.5s-.5.22-.5.5.22.5.5.5.5-.22.5-.5Z"/>
    <path class="cls-28" d="M324,394.53l5.01,8.6,4.51,8.46c2.21,4.14,8.3,7.23,8.46,12.38l-5.48,1.33-12.95,6.33-18.76,9.17-12.4,8.33c-3.64,2.45-7.98,5.11-11.6,7.38-8.65-.04-16.56,2.33-23.17,8.01l-8.86,7.63-16.94,7.4c-1.88.82-5.68,1.57-7.01,2.8-2.09,1.94-4.43,5.5-6.88,5.78-7.59.86-14.06,3.81-20.1,7.27-8.16-.95-6.49,2.93-9.68,1.17,2.29-3.61,5.91-5.37,9.06-7.97l12.59-10.41,6.76-6.05,11.62-10.24.97-3.12,9.95-6.59c2.68-1.78-4.37-3.9,9.22-12.01,2.29-5.33,5.64-9.87,10.67-12.34,1.28,1.98,4.09,3.14,6.6,2.99,5.42-.33,6.59-7.11,10.09-7.41s6.43-2.14,6.15-6.06c9.22-7.15,12.75,3.49,19.07-5.61,6.61-9.53,9.59.94,16.42-12.71,1.43-2.85,3.91-4.31,6.69-4.49Z"/>
    <path class="cls-7" d="M312.06,51.44c1.85-.32,4.31.21,7.05.99l-9.42,10.76,7.32.45c-.9,3.87-1,8.04-.18,12.35,1.09,5.72-.71,11.13-1.32,16.82-.61,5.64-.52,10.8-2.29,15.82l-17.67,13.3.17-6.19c-7.64,2.92-13.03,6.41-18.21,11.33l-14.06,13.36,1.7-9.4c-7.84,2.68-12.69,8.95-17.99,14.64-.85-.84-2.46-2.63-3.22-2.2l-3.89,2.2-3.39-4.69c-2.24-3.1-4.74-5.46-6.38-8.42l9.73-8.07c2.4-1.99,7.49-2.16,10.32-3.68,18.01-9.69,11.81-5.54,22.24-15.89l5.39-5.35c4.96-4.92,6.61-20.02,6.72-26.77.21-12.63-.59-15.31-4.7-25.21-.59-1.42-3.87-3.21-3.8-4.95l12.78-.69c1.86-.1,6.35,3.27,5.38,4.67-1.57,2.26-4.11,4.77-6.37,7.2,3.73.52,7.46.54,10.99-.07l13.14-2.3Z"/>
    <path class="cls-3" d="M347.14,164.62c-.78,3.01-3.81,5.54-5.41,8.43s-2.97,5.47-4.97,8.12c-4.83,6.38-8.15,13.41-12.16,20.22-4.41,7.5-7.75,18.54-10.47,24.78l-4.44,10.2c2.14,16.19-7.41,6.69-3.77,30.34l-4.07,6.58c-.23,4.23-.36,7.33-1.29,11.6l-1.7-14.38c-.36-3-3.49-7.44-3.04-10.53.84-5.86.11-9.48-3.15-14.33-1.31-1.95.59-7.24-.34-9.38l-3.71-8.46-4.52-10.49c-1.67-3.88-4.78-7.46-3.98-11.79l1.18-6.46c1.2-6.51,8.27-5.93,12.6-7.58,6.24-2.38,12.52-1.39,18.83-2.69,7.32-1.5,9.64-13.45,9.23-20.31,7.42-1.41,13.55-4.72,18.36-11.03,3.56.56,5.95,4.12,6.84,7.15Z"/>
    <path class="cls-16" d="M303.06,332.68c6.53,4.46-.83,9.1,6.02,18.4l-.38,7.56,6.37,13.34c.8,1.67,1.48,4.48,1.87,6.09,1.93,2.71,3.04,4.89,3.51,8.61.88,2.26,2.37,5.84,3.53,7.84-2.78.18-5.27,1.64-6.69,4.49-6.83,13.65-9.8,3.18-16.42,12.71-6.32,9.1-9.85-1.54-19.07,5.61.28,3.92-2.66,5.76-6.15,6.06s-4.68,7.08-10.09,7.41c-2.51.16-5.32-1.01-6.6-2.99-1.79-5.08,7.1-11.79,9.48-16.39l4.21-8.15,8.29-16.14c.93-1.82,1.13-5.86,2.08-8.01,3.19-7.24,7.08-14.01,9.88-21.36.52-1.36,2.16-25.4,6.12-25.04,1.17.11,2.86.08,4.02-.04Z"/>
    <path class="cls-15" d="M258.92,44.86l8.33-2.14c.54.72,1.62,1.9,2.46,1.99,1,.11,2.77-1.32,3.34-2.11.87.01,2.32.06,3.09.02-.07,1.74,3.21,3.54,3.8,4.95,4.11,9.9,4.91,12.58,4.7,25.21-.11,6.75-1.76,21.85-6.72,26.77l-5.39,5.35c-10.43,10.36-4.22,6.2-22.24,15.89-2.82,1.52-7.92,1.69-10.32,3.68l-9.73,8.07-8.95-6.21-2.22-5.65c-2.83-1.62-5.18-3.86-5.31-6.64.67-3.12,14.85-4.11,18.39-4.29,13.99-.7,23.84-4.34,32.11-15.83,3.09-4.29,4.33-8.74,3.92-14.32-2.02-27.56-1.34-13.89-13.51-32.57-.38-.58-1.86-2.11-1.87-2.15l4.28-2.18-1.85,3.14,3.69-.98Z"/>
    <path class="cls-3" d="M303.06,332.68c-1.15.12-2.84.14-4.02.04l-1.33-7.81,3.57-11.9c1.29,7.18,1.67,13.23,1.78,19.67Z"/>
    <path class="cls-4" d="M431.19,507.7l-2.34-.23c-.53-.05-.7-1.31-.83-1.8,1.16.3,2.42,1.09,3.17,2.02Z"/>
    <path class="cls-18" d="M338.03,99.46c-4.69,2.12-8.96,5.27-13.43,8.61l-9.08,6.8,3.91-7.35-6.22,1.1c1.77-5.01,1.68-10.17,2.29-15.82.62-5.69,2.41-11.1,1.32-16.82-.82-4.31-.72-8.49.18-12.35,6.94-2.04,13.02-3.63,21.53-4.9l-8.29,12.81c5.07,1.67,11.55-5.2,16.9-5.98l-3.63,8.86-8.89,9.1,12.52-4.03-7.55,13.25,4.93,1.72-6.49,5.01Z"/>
    <path class="cls-17" d="M377.72,25.77c.97-.14,3.24,5.92,2.84,7.89-.28,1.4-4.29,2.69-6.14,2.01-1.01-1.52-.97-6.4-.06-8.26.32-.66,2.64-1.54,3.37-1.64Z"/>
    <path class="cls-7" d="M273.04,42.6c-.57.79-2.34,2.22-3.34,2.11-.84-.09-1.92-1.27-2.46-1.99l1.88-1.21c.53-.34,1.85-.68,2.54-.84.63-.14,1.28,1.31,1.37,1.93Z"/>
    <path class="cls-17" d="M258.92,44.86l-3.69.98,1.85-3.14c.48-.24,2.01-.03,1.97.5l-.13,1.66Z"/>
    <path class="cls-17" d="M244.2,47.63c-.34.09-1.43-.15-1.24-.44l1.02-1.58.22,2.02Z"/>
    <circle class="cls-1" cx="230.58" cy="430.17" r=".51"/>
    <path class="cls-3" d="M337.64,155.92c-.61.35-2.63.85-3.29.86-.88.01-.11-2.96.17-3.14l2.13-1.03c.43-.21,1.44.31,1.85.56s-.45,2.52-.86,2.75Z"/>
    <circle class="cls-7" cx="292.58" cy="124.7" r=".63"/>
    <circle class="cls-7" cx="262.08" cy="141.7" r=".86"/>
    <circle class="cls-17" cx="241.58" cy="48.2" r=".5"/>
  </g>
</svg>
